<svg id="Layer_1" data-name="Layer 1" xmlns="http://www.w3.org/2000/svg" viewBox="0 0 288 78.01"><defs><style>.cls-1{fill:#fff;}</style></defs><title>PMI_4_WHITE</title><path class="cls-1" d="M35.47,67.09q7.53.24,9.59.24,2.81,0,6.3-.15c2.48-.08,4-.12,4.58-.12a23.26,23.26,0,0,1,6.92.86,9.14,9.14,0,0,1,4.53,3.17,8.8,8.8,0,0,1,1.8,5.56,11.44,11.44,0,0,1-1.26,5.2,12.49,12.49,0,0,1-3.5,4.27,14.42,14.42,0,0,1-9.32,3.29A22.69,22.69,0,0,1,51,89l-.51-1.83.27-.3a17.32,17.32,0,0,0,3.65.51,8.14,8.14,0,0,0,6.29-2.59,9.38,9.38,0,0,0,2.38-6.62,8.66,8.66,0,0,0-2.46-6.48q-2.47-2.43-7.46-2.42a20,20,0,0,0-6,1q-.27,2.3-.27,11.11V95.25l0,5.83a42.17,42.17,0,0,0,.18,4.36,2.66,2.66,0,0,0,.44,1.31,2.25,2.25,0,0,0,1.09.56,24.3,24.3,0,0,0,4,.34l.24.18v1.5l-.24.23q-7.62-.23-8.58-.23t-8.55.23l-.24-.23v-1.5l.24-.18a30.49,30.49,0,0,0,3.7-.3,2.75,2.75,0,0,0,1.25-.46,2.37,2.37,0,0,0,.5-1.22,27.66,27.66,0,0,0,.22-4.12l0-6.3V81.41l-.06-5.83c0-2.27-.07-3.74-.16-4.39a2.74,2.74,0,0,0-.42-1.31,2.14,2.14,0,0,0-1.09-.54,25.43,25.43,0,0,0-4-.33l-.24-.21V67.3Z" transform="translate(-34.97 -66.2)"/><path class="cls-1" d="M57.76,109.56l-.27-.23v-1.56l.27-.24a13,13,0,0,0,2.81-.22,2.42,2.42,0,0,0,1.12-.78,24.75,24.75,0,0,0,2-3.81l3.14-6.81,8.13-18.42q2.3-5.4,4.58-10.82h1.94l12.76,30,1.7,4c.5,1.14,1.07,2.36,1.72,3.7A10.94,10.94,0,0,0,99,106.75a2.65,2.65,0,0,0,.93.56,10,10,0,0,0,2.47.22l.24.24v1.56l-.24.23q-3.17-.27-5.71-.26-5,.14-9.92.26l-.25-.23v-1.56l.25-.24a25.11,25.11,0,0,0,4.18-.28,1,1,0,0,0,.84-1,5.09,5.09,0,0,0-.42-1.73l-3.67-9.12H70.37L67.11,103a9,9,0,0,0-.86,3,1.17,1.17,0,0,0,.8,1.11,13.74,13.74,0,0,0,4.06.39l.27.24v1.56l-.24.23q-3.85-.23-6.75-.23Q61.11,109.32,57.76,109.56ZM71.38,92.79H86.51l-7.5-18Z" transform="translate(-34.97 -66.2)"/><path class="cls-1" d="M98.19,67.3l.24-.21c3.65.16,6.48.24,8.52.24q3.38,0,9.11-.21c1.41,0,2.44-.06,3.08-.06q7.55,0,10.25,2.75a9,9,0,0,1,2.69,6.52,10.25,10.25,0,0,1-1.31,4.93,11.68,11.68,0,0,1-3.89,4.13A19.31,19.31,0,0,1,119.8,88q.84,1.17,3,4l4.25,5.62q2.06,2.78,4.42,5.87a18.86,18.86,0,0,0,3,3.49,3.69,3.69,0,0,0,1.18.5,9.46,9.46,0,0,0,1.57.09l.24.24v1.41l-.27.27a28.29,28.29,0,0,0-3.41-.17c-1.42,0-3,.06-4.64.17q-2.05-2.51-6.48-8.7-5.14-7.17-10.52-13.3l.3-.92c1,.06,1.84.09,2.42.09q5.17,0,8.1-2.48A8.53,8.53,0,0,0,126,77.31a7.07,7.07,0,0,0-2.63-6,11.43,11.43,0,0,0-7.12-2,19.7,19.7,0,0,0-5.91.87q-.46.66-.45,11.21V95.25l0,5.83a38.37,38.37,0,0,0,.18,4.36,2.73,2.73,0,0,0,.43,1.31,2.28,2.28,0,0,0,1.09.56,24.3,24.3,0,0,0,4,.34l.24.18v1.5l-.24.23-5.26-.18q-2.13-.06-3.32-.06-.92,0-8.55.23l-.24-.23v-1.5l.24-.18a30.48,30.48,0,0,0,3.7-.3,2.72,2.72,0,0,0,1.25-.46,2.37,2.37,0,0,0,.5-1.22,27.27,27.27,0,0,0,.23-4.12l0-6.3V81.41l-.06-5.83c0-2.27-.08-3.74-.16-4.39a2.68,2.68,0,0,0-.41-1.31,2.18,2.18,0,0,0-1.09-.54,25.65,25.65,0,0,0-4-.33l-.24-.21Z" transform="translate(-34.97 -66.2)"/><path class="cls-1" d="M171.43,67.09l.27.27q-.26,2.69-.27,9.39l-.24.24h-1.41l-.24-.27L169.22,74a24.73,24.73,0,0,0-.37-2.7,1.3,1.3,0,0,0-.44-.72,5.28,5.28,0,0,0-1.94-.37c-1.1-.1-2.33-.15-3.68-.15h-5.65c-.16,4.51-.24,7.11-.24,7.81V95.25l.06,5.83c0,2.25.07,3.71.16,4.38a2.68,2.68,0,0,0,.42,1.31,2.31,2.31,0,0,0,1.09.54,24.58,24.58,0,0,0,4,.34l.21.18v1.5l-.21.23q-7.66-.23-8.55-.23t-8.52.23l-.24-.23v-1.5l.24-.18a30.43,30.43,0,0,0,3.72-.3,2.73,2.73,0,0,0,1.23-.46,2.47,2.47,0,0,0,.52-1.22,24.34,24.34,0,0,0,.21-4.12l.06-6.3V77.82c0-.32-.08-2.92-.24-7.81h-4.45c-1.84,0-3.42,0-4.75.12s-2.11.28-2.32.61A11.05,11.05,0,0,0,139,74l-.3,2.75-.27.27H137l-.24-.24q-.07-7.21-.27-9.39l.27-.27q5.19.24,17.3.24Q166.44,67.33,171.43,67.09Z" transform="translate(-34.97 -66.2)"/><path class="cls-1" d="M171.64,109.53l-.27-.27v-1.38l.27-.24a20,20,0,0,0,2.92-.21,2.19,2.19,0,0,0,1.4-.6,2.77,2.77,0,0,0,.42-1.34q.11-.93.21-4.18c.07-2.17.11-3.73.11-4.66V72.5a3.7,3.7,0,0,0-.55-2.25,2.4,2.4,0,0,0-1.51-.92,18.88,18.88,0,0,0-3.25-.23l-.24-.24V67.45l.24-.27q4.12.14,5.41.15,3,0,5-.15l9.53,12.37,14,17.57q2.56,3.2,5.18,6.06V80.06c0-.72,0-2.25-.11-4.59A42.86,42.86,0,0,0,210.1,71a2.11,2.11,0,0,0-.51-1.27,3,3,0,0,0-1.41-.5,22.27,22.27,0,0,0-2.8-.19l-.23-.24V67.45l.23-.27c1.62.1,3.93.15,6.9.15q4.11,0,5.94-.15l.27.27v1.37l-.24.24a19,19,0,0,0-3,.23,1.93,1.93,0,0,0-1.34.64,3.29,3.29,0,0,0-.37,1.31c-.07.58-.15,2-.21,4.12s-.1,3.73-.1,4.69V94.25l0,8.23q.06,4,.12,8.1a46.6,46.6,0,0,0-5.18-1.25L206,106.81,199.68,99,179.41,73.72V96.65c0,.91,0,2.55.11,4.9a40.71,40.71,0,0,0,.25,4.28,2.44,2.44,0,0,0,.39,1,2.24,2.24,0,0,0,1,.52,14.07,14.07,0,0,0,3.27.27l.23.24v1.41l-.23.23a42.64,42.64,0,0,0-5-.2Q175,109.32,171.64,109.53Z" transform="translate(-34.97 -66.2)"/><path class="cls-1" d="M218,67.3l.24-.21q10.26.17,13.12.18,9.8,0,17.46-.18l.14.21a51.61,51.61,0,0,0-1.1,9l-.18.24h-1.47L246,76.3c0-.18,0-.34,0-.48a28.18,28.18,0,0,0-.4-4.84,16.27,16.27,0,0,0-5.22-1.08c-2.22-.17-3.88-.26-5-.26-1.57,0-3.59.12-6,.34l-.12,4.77-.09,5.48-.09,6.06c2.15.12,4.15.18,6,.18s3.36-.05,4.6-.18a8,8,0,0,0,2.16-.37,1.27,1.27,0,0,0,.49-.75,12.7,12.7,0,0,0,.28-2l.11-1.85.25-.24h1.37l.24.24c0,2.17-.09,4.36-.15,6.54l.15,6.72-.24.24h-1.37l-.25-.24-.2-1.79a24.6,24.6,0,0,0-.4-2.5,1.31,1.31,0,0,0-.54-.7,6,6,0,0,0-2.24-.47c-1.19-.12-2.83-.18-4.92-.18-1.15,0-2.93,0-5.3.15q-.14,2.51-.14,8.36,0,6.28.14,9.24h5.5q7.26,0,9.09-.18a11.77,11.77,0,0,0,3.47-.87,32.23,32.23,0,0,0,.88-3.18c.41-1.66.65-2.7.71-3.12l.29-.21h1.44l.24.21a42.16,42.16,0,0,0-.53,4.48c-.16,2.14-.25,4-.25,5.48l-.21.23c-3.79-.12-8.78-.18-14.94-.18l-8.13-.06q-2.85,0-5.91.23l-.25-.23v-1l.25-.3a16.78,16.78,0,0,0,2-1.11c.18-.15.31-1.89.43-5.23s.16-5.89.16-7.64v-11l0-6.78c0-1.47,0-2.67-.06-3.6a11.11,11.11,0,0,0-.21-2,2.28,2.28,0,0,0-.34-.83,1.49,1.49,0,0,0-.63-.41,6.84,6.84,0,0,0-1.48-.28L218.29,69l-.24-.21Z" transform="translate(-34.97 -66.2)"/><path class="cls-1" d="M253.57,67.3l.25-.21q5.47.24,8.52.24,3.38,0,9.11-.21,2.14-.06,3.08-.06c5,0,8.46.92,10.25,2.75a9,9,0,0,1,2.69,6.52,10.25,10.25,0,0,1-1.31,4.93,11.78,11.78,0,0,1-3.88,4.13A19.39,19.39,0,0,1,275.19,88c.56.78,1.56,2.12,3,4l4.23,5.62c1.38,1.85,2.86,3.81,4.43,5.87a19.34,19.34,0,0,0,3,3.49,3.8,3.8,0,0,0,1.18.5,9.55,9.55,0,0,0,1.57.09l.24.24v1.41l-.27.27a28.2,28.2,0,0,0-3.41-.17c-1.41,0-2.95.06-4.63.17q-2.06-2.51-6.48-8.7Q273,93.63,267.6,87.5l.31-.92c1,.06,1.84.09,2.41.09,3.44,0,6.15-.83,8.1-2.48a8.51,8.51,0,0,0,2.93-6.87,7.07,7.07,0,0,0-2.63-6,11.42,11.42,0,0,0-7.12-2,19.66,19.66,0,0,0-5.91.87q-.46.66-.46,11.21V95.25l0,5.83a43,43,0,0,0,.18,4.36,2.78,2.78,0,0,0,.43,1.31,2.29,2.29,0,0,0,1.09.56,24.38,24.38,0,0,0,4,.34l.25.18v1.5l-.25.23-5.25-.18c-1.41,0-2.52-.06-3.31-.06-.62,0-3.47.08-8.55.23l-.25-.23v-1.5l.25-.18a31,31,0,0,0,3.71-.3,2.67,2.67,0,0,0,1.23-.46,2.28,2.28,0,0,0,.52-1.22,28.56,28.56,0,0,0,.22-4.12l0-6.3V81.41l-.06-5.83c0-2.27-.07-3.74-.16-4.39a2.71,2.71,0,0,0-.42-1.31,2.13,2.13,0,0,0-1.09-.54,25.31,25.31,0,0,0-4-.33l-.25-.21Z" transform="translate(-34.97 -66.2)"/><path class="cls-1" d="M294.63,99l.24-.24h1.47l.25.24a28.85,28.85,0,0,0,.39,4.68,3.89,3.89,0,0,0,1.62,1.79,11.57,11.57,0,0,0,3.62,1.54,17.61,17.61,0,0,0,4.56.6,13.44,13.44,0,0,0,5.69-1.16,8.94,8.94,0,0,0,3.93-3.42A9.52,9.52,0,0,0,317.81,98a8.25,8.25,0,0,0-.68-3.44,5.8,5.8,0,0,0-1.88-2.35,8.83,8.83,0,0,0-2.77-1.31c-1-.28-2.57-.6-4.63-.94s-3.56-.61-4.68-.86a16,16,0,0,1-3.35-1.2,8.86,8.86,0,0,1-2.8-2,9.2,9.2,0,0,1-1.79-3,11.09,11.09,0,0,1-.68-3.87,11.9,11.9,0,0,1,3.89-9.16q3.89-3.57,10.43-3.57a27.47,27.47,0,0,1,5.66.64,22.58,22.58,0,0,1,5.57,1.89l.21.36a40.65,40.65,0,0,0-.81,7.83l-.27.24h-1.54l-.24-.21q-.06-3.58-.18-4.51t-2.72-2.3a11.79,11.79,0,0,0-5.64-1.38,11.34,11.34,0,0,0-4.77,1,7,7,0,0,0-3.35,3.2,9.56,9.56,0,0,0-1.13,4.45,6.8,6.8,0,0,0,.69,3.12,5.93,5.93,0,0,0,1.78,2.15,7.59,7.59,0,0,0,2.54,1.18c1,.25,2.74.58,5.31,1a31.49,31.49,0,0,1,7.69,1.81A8.56,8.56,0,0,1,321.53,90,10.34,10.34,0,0,1,323,95.57a13.16,13.16,0,0,1-5.19,10.61,19.21,19.21,0,0,1-12.56,4.24,25,25,0,0,1-10.85-2.21l-.18-.39Q294.48,105.95,294.63,99Z" transform="translate(-34.97 -66.2)"/><path class="cls-1" d="M55.62,127.93l.11.09v.56l-.09.07a7.66,7.66,0,0,0-1.53.14.59.59,0,0,0-.41.29,1.8,1.8,0,0,0-.15.81c0,.41,0,1.54-.05,3.41v5.18c0,.75,0,1.58,0,2.53a6.44,6.44,0,0,0,.14,1.63A.64.64,0,0,0,54,143a6.88,6.88,0,0,0,1.59.13l.09.08v.54l-.11.09c-1.21-.07-2.27-.1-3.18-.1q-.92,0-3.13.1l-.1-.09v-.53l.09-.09a7,7,0,0,0,1.53-.12.64.64,0,0,0,.42-.29,2,2,0,0,0,.14-.82c0-.42,0-1.55.06-3.4v-8.24l-3.87,8.09q-1.46,3-2.54,5.72h-.44c-.42-1-.76-1.73-1-2.31l-5.36-11.12v7.83c0,.73,0,1.57,0,2.53a6.49,6.49,0,0,0,.14,1.66.71.71,0,0,0,.39.33,6.43,6.43,0,0,0,1.59.14l.08.09v.54l-.1.1-.72,0c-.74,0-1.37-.06-1.91-.06l-2.68.09-.09-.09v-.53l.09-.1a8.28,8.28,0,0,0,1.52-.12.69.69,0,0,0,.42-.31,1.68,1.68,0,0,0,.14-.79c0-.4,0-1.53.06-3.44v-5.13c0-.68,0-1.52,0-2.49a6.87,6.87,0,0,0-.14-1.69.66.66,0,0,0-.38-.34,6.6,6.6,0,0,0-1.59-.13l-.09-.09V128l.11-.11c.51.05,1.21.06,2.08.06s1.54,0,2.15-.06c.63,1.46,1.23,2.77,1.81,3.94l4.25,8.72,3.83-8q1.55-3.24,2.09-4.67c.72.05,1.42.06,2.11.06S54.77,128,55.62,127.93Z" transform="translate(-34.97 -66.2)"/><path class="cls-1" d="M55.53,128l.09-.09q3.84.08,4.92.08c2.45,0,4.63,0,6.55-.08l.06.09a19.14,19.14,0,0,0-.42,3.37l-.06.09h-.55l-.11-.09a1.08,1.08,0,0,0,0-.18,10.25,10.25,0,0,0-.15-1.81,6,6,0,0,0-2-.41c-.83-.06-1.46-.09-1.88-.09-.58,0-1.34,0-2.26.12l0,1.79,0,2.05,0,2.28c.81,0,1.55.07,2.23.07s1.26,0,1.72-.07a2.76,2.76,0,0,0,.81-.15.43.43,0,0,0,.18-.28,4.57,4.57,0,0,0,.11-.73l0-.71.08-.08h.52l.09.08c0,.83,0,1.64-.06,2.46l.06,2.52-.09.08h-.52l-.08-.08-.09-.68c-.06-.53-.11-.82-.14-.94a.47.47,0,0,0-.21-.25,1.92,1.92,0,0,0-.84-.18c-.44,0-1.06-.07-1.85-.07-.43,0-1.09,0-2,.06,0,.63-.05,1.67-.05,3.13s0,2.72.05,3.47h2.06c1.81,0,3,0,3.41-.07a4.56,4.56,0,0,0,1.3-.33,9.83,9.83,0,0,0,.33-1.19c.15-.62.25-1,.27-1.17l.12-.08h.54l.09.08a14,14,0,0,0-.2,1.67q-.09,1.21-.09,2.05l-.08.09c-1.42,0-3.3-.07-5.6-.07l-3,0c-.71,0-1.44,0-2.21.09l-.09-.09v-.37l.09-.1a6.77,6.77,0,0,0,.75-.43,8.88,8.88,0,0,0,.16-1.95c0-1.25.06-2.21.06-2.87v-6.66c0-.56,0-1,0-1.35a4.2,4.2,0,0,0-.08-.74,1.09,1.09,0,0,0-.13-.31.56.56,0,0,0-.24-.15,2.87,2.87,0,0,0-.55-.1l-.85-.08-.09-.07Z" transform="translate(-34.97 -66.2)"/><path class="cls-1" d="M67.72,128l.09-.09c1.29.06,2.17.09,2.64.09l5.25-.1a13.37,13.37,0,0,1,3.67.41,6.36,6.36,0,0,1,2.55,1.46,6.85,6.85,0,0,1,1.69,2.41,7.39,7.39,0,0,1,.59,2.93,8.89,8.89,0,0,1-.53,3,8.76,8.76,0,0,1-1.5,2.65,8.37,8.37,0,0,1-2.21,1.9,8.08,8.08,0,0,1-2.48.95,13.5,13.5,0,0,1-2.54.24c-.58,0-1.68,0-3.3-.07l-1.05,0c-.51,0-1.14,0-1.87.09l-.09-.09v-.37l.09-.1a7.27,7.27,0,0,0,.76-.43,8.91,8.91,0,0,0,.16-1.95c0-1.25.06-2.21.06-2.87v-6.66c0-.56,0-1,0-1.35a3.29,3.29,0,0,0-.08-.74.78.78,0,0,0-.13-.31.49.49,0,0,0-.24-.15,3,3,0,0,0-.55-.1l-.86-.08-.09-.07Zm4.15,14.62a13.34,13.34,0,0,0,2.63.22,8.44,8.44,0,0,0,4.17-.87A5.44,5.44,0,0,0,81,139.36a9.3,9.3,0,0,0,.77-3.86,6.81,6.81,0,0,0-1.69-4.93q-1.69-1.74-5.33-1.75a19.08,19.08,0,0,0-2.89.22c-.06,1.23-.09,2.61-.09,4.15v3.52l0,3.29C71.8,140.66,71.83,141.52,71.88,142.6Z" transform="translate(-34.97 -66.2)"/><path class="cls-1" d="M83.86,127.9l1.4.05c.92,0,1.52,0,1.81,0l3.22-.09.08.09v.56l-.08.07a11.15,11.15,0,0,0-1.2.08,1.37,1.37,0,0,0-.61.16.82.82,0,0,0-.25.57,11.59,11.59,0,0,0-.06,1.27l0,2.57v7.37a13.15,13.15,0,0,0,.06,1.63,1,1,0,0,0,.16.49.87.87,0,0,0,.41.21,8.76,8.76,0,0,0,1.5.13l.08.07v.56l-.08.09-2-.07c-.52,0-.94,0-1.24,0l-3.2.09-.09-.09v-.56l.09-.07a9.56,9.56,0,0,0,1.39-.12,1,1,0,0,0,.47-.16,1,1,0,0,0,.19-.46,10.22,10.22,0,0,0,.08-1.54v-7.55l0-2.19c0-.85,0-1.41-.05-1.64a1,1,0,0,0-.16-.49.78.78,0,0,0-.41-.21,10.39,10.39,0,0,0-1.49-.13l-.09-.07V128Z" transform="translate(-34.97 -66.2)"/><path class="cls-1" d="M104.61,141.83l-.42,1a11.56,11.56,0,0,1-5.31,1.26,9.4,9.4,0,0,1-6.57-2.29,7.73,7.73,0,0,1-2.52-6,7.82,7.82,0,0,1,4.58-7.33,11.1,11.1,0,0,1,4.64-.94,13.65,13.65,0,0,1,3,.31,13.34,13.34,0,0,1,2.43.75l.08.12a13.94,13.94,0,0,0-.48,3.1l-.08.09h-.53l-.09-.09-.11-1.91a5.81,5.81,0,0,0-2-1,7.85,7.85,0,0,0-2.41-.37,7,7,0,0,0-3.39.81,5.61,5.61,0,0,0-2.33,2.35,7.83,7.83,0,0,0-.83,3.77,7.7,7.7,0,0,0,1,3.93,6.62,6.62,0,0,0,2.66,2.6,8.21,8.21,0,0,0,3.94.91,9.54,9.54,0,0,0,1.92-.19,7,7,0,0,0,1.53-.47,6.56,6.56,0,0,0,1.17-.68Z" transform="translate(-34.97 -66.2)"/><path class="cls-1" d="M105.46,143.83l-.1-.09v-.59l.1-.08a6.28,6.28,0,0,0,1.06-.09,1,1,0,0,0,.42-.3,8,8,0,0,0,.74-1.42l1.18-2.56,3-6.9c.58-1.35,1.14-2.7,1.72-4.06h.72L119.13,139l.64,1.5c.19.43.4.9.64,1.4a4.12,4.12,0,0,0,.51.88,1,1,0,0,0,.35.21,4.75,4.75,0,0,0,.92.09l.09.08v.59l-.09.09c-.79-.07-1.5-.1-2.14-.1l-3.72.1-.09-.09v-.59l.09-.08a9.07,9.07,0,0,0,1.57-.11.38.38,0,0,0,.32-.38,2.11,2.11,0,0,0-.16-.65l-1.38-3.41h-6.49L109,141.37a3.44,3.44,0,0,0-.33,1.14.44.44,0,0,0,.3.41,5.41,5.41,0,0,0,1.53.15l.1.08v.59l-.09.09c-1-.06-1.81-.09-2.53-.09S106.3,143.77,105.46,143.83Zm5.12-6.28h5.66l-2.81-6.75Z" transform="translate(-34.97 -66.2)"/><path class="cls-1" d="M120.83,128l.08-.09,3.2.09,3.22-.09.09.09v.56l-.09.07a11,11,0,0,0-1.19.08,1.36,1.36,0,0,0-.61.16.82.82,0,0,0-.26.57,11.78,11.78,0,0,0-.05,1.27l0,2.57v5c0,1.23,0,2.1,0,2.6l.05,1.94h2.28c1.83,0,3,0,3.42-.07a4.6,4.6,0,0,0,1.3-.33,8.92,8.92,0,0,0,.36-1.29,11.79,11.79,0,0,0,.24-1.16l.1-.09h.55l.08.09a16.41,16.41,0,0,0-.19,1.73c-.06.87-.09,1.56-.09,2.09l-.09.09c-1.41,0-3.28-.07-5.58-.07l-3.28,0c-.75,0-1.5,0-2.28.09l-.09-.09v-.37l.09-.1a7.78,7.78,0,0,0,.76-.44,8.07,8.07,0,0,0,.14-1.46c0-.91.07-2,.07-3.29v-4.81l0-2.19c0-.85,0-1.41-.06-1.64a1,1,0,0,0-.16-.49.78.78,0,0,0-.41-.21,10.52,10.52,0,0,0-1.5-.13l-.08-.07Z" transform="translate(-34.97 -66.2)"/><path class="cls-1" d="M141,127.9l1.4.05c.92,0,1.52,0,1.8,0l3.22-.09.09.09v.56l-.09.07a11,11,0,0,0-1.19.08,1.43,1.43,0,0,0-.62.16.82.82,0,0,0-.25.57,11.77,11.77,0,0,0-.05,1.27l0,2.57v7.37a14.57,14.57,0,0,0,.06,1.63,1,1,0,0,0,.16.49.86.86,0,0,0,.41.21,8.64,8.64,0,0,0,1.49.13l.09.07v.56l-.09.09-2-.07c-.53,0-.95,0-1.25,0l-3.2.09-.08-.09v-.56l.08-.07a9.46,9.46,0,0,0,1.39-.12,1,1,0,0,0,.47-.16.92.92,0,0,0,.19-.46,10.71,10.71,0,0,0,.09-1.54v-7.55l0-2.19c0-.85,0-1.41-.06-1.64a1,1,0,0,0-.16-.49.83.83,0,0,0-.41-.21,10.53,10.53,0,0,0-1.5-.13l-.08-.07V128Z" transform="translate(-34.97 -66.2)"/><path class="cls-1" d="M148.54,143.8l-.1-.1v-.51l.1-.09a6.09,6.09,0,0,0,1.09-.08.74.74,0,0,0,.53-.22,1,1,0,0,0,.16-.5c0-.22,0-.75.08-1.56s0-1.4,0-1.75v-9.05a1.39,1.39,0,0,0-.21-.84.91.91,0,0,0-.56-.35,10,10,0,0,0-1.22-.09l-.09-.08V128l.09-.11c1,.05,1.7.06,2,.06.75,0,1.38,0,1.86-.06l3.57,4.65,5.26,6.59c.63.79,1.28,1.56,1.94,2.28v-8.68c0-.27,0-.84,0-1.72a14.53,14.53,0,0,0-.09-1.66.82.82,0,0,0-.19-.49,1.22,1.22,0,0,0-.53-.17,5.83,5.83,0,0,0-1-.09l-.09-.09V128l.09-.11c.61.05,1.47.06,2.58.06s1.77,0,2.23-.06l.1.11v.51l-.09.09a6.22,6.22,0,0,0-1.14.09.7.7,0,0,0-.51.25,1.26,1.26,0,0,0-.14.48c0,.22,0,.74-.07,1.56s0,1.4,0,1.75v8.41c0,1,0,2,0,3a17.4,17.4,0,0,0-1.93-.47l-.8-.94L159,139.89l-7.6-9.5V139c0,.35,0,1,0,1.84a15.67,15.67,0,0,0,.09,1.6.89.89,0,0,0,.15.38.75.75,0,0,0,.38.21,5.24,5.24,0,0,0,1.23.1l.09.09v.53l-.09.08c-.39,0-1-.07-1.88-.07C150.35,143.73,149.38,143.76,148.54,143.8Z" transform="translate(-34.97 -66.2)"/><path class="cls-1" d="M180.16,127.9l.1.11c-.06.66-.1,1.84-.1,3.51l-.09.09h-.52l-.09-.1-.12-1c-.06-.56-.11-.9-.14-1a.55.55,0,0,0-.16-.26,2.17,2.17,0,0,0-.73-.15c-.41,0-.87,0-1.38,0H174.8c-.06,1.69-.09,2.66-.09,2.91v6.53l0,2.19c0,.84,0,1.4.06,1.65a.88.88,0,0,0,.16.48.82.82,0,0,0,.41.21,8.8,8.8,0,0,0,1.5.13l.08.07v.56l-.08.09-3.2-.09-3.19.09-.09-.09v-.56l.09-.07a9.41,9.41,0,0,0,1.39-.12,1,1,0,0,0,.46-.16,1,1,0,0,0,.2-.46,9.43,9.43,0,0,0,.08-1.54l0-2.37v-6.53c0-.12,0-1.09-.09-2.91h-1.67c-.69,0-1.28,0-1.78,0s-.79.1-.87.23a4,4,0,0,0-.22,1.21l-.11,1-.1.1h-.51l-.09-.09c0-1.79,0-3-.11-3.51l.11-.11q1.95.09,6.49.09C176.75,128,178.91,128,180.16,127.9Z" transform="translate(-34.97 -66.2)"/><path class="cls-1" d="M181.31,128l.09-.09c2.57.05,4.2.08,4.92.08,2.44,0,4.63,0,6.54-.08l.06.09a19.18,19.18,0,0,0-.41,3.37l-.07.09h-.55l-.1-.09c0-.06,0-.13,0-.18a11,11,0,0,0-.14-1.81,6.07,6.07,0,0,0-2-.41c-.84-.06-1.46-.09-1.88-.09-.59,0-1.34,0-2.26.12l-.05,1.79,0,2.05,0,2.28c.81,0,1.56.07,2.23.07s1.27,0,1.74-.07a2.94,2.94,0,0,0,.81-.15.42.42,0,0,0,.17-.28,3.34,3.34,0,0,0,.12-.73l0-.71.09-.08h.52l.08.08c0,.83,0,1.64,0,2.46l0,2.52-.08.08h-.52l-.09-.08-.07-.68a9,9,0,0,0-.15-.94.46.46,0,0,0-.21-.25,1.84,1.84,0,0,0-.83-.18c-.46,0-1.06-.07-1.85-.07-.44,0-1.09,0-2,.06,0,.63-.06,1.67-.06,3.13s0,2.72.06,3.47h2.06c1.81,0,2.94,0,3.41-.07a4.67,4.67,0,0,0,1.31-.33c.06-.17.17-.57.32-1.19s.25-1,.27-1.17l.1-.08h.55l.08.08a16.07,16.07,0,0,0-.19,1.67q-.1,1.21-.09,2.05l-.09.09c-1.42,0-3.29-.07-5.6-.07l-3,0c-.72,0-1.46,0-2.22.09l-.09-.09v-.37l.09-.1a6.69,6.69,0,0,0,.75-.43,8.3,8.3,0,0,0,.16-1.95c0-1.25.06-2.21.06-2.87v-6.66c0-.56,0-1,0-1.35a3.51,3.51,0,0,0-.09-.74.7.7,0,0,0-.13-.31.47.47,0,0,0-.23-.15,3.18,3.18,0,0,0-.56-.1l-.85-.08-.09-.07Z" transform="translate(-34.97 -66.2)"/><path class="cls-1" d="M194.78,128l.08-.09c1.37.06,2.43.09,3.2.09s2,0,3.41-.07l1.16,0q2.83,0,3.84,1a3.41,3.41,0,0,1,1,2.44,3.75,3.75,0,0,1-.5,1.85,4.36,4.36,0,0,1-1.45,1.56,7.28,7.28,0,0,1-2.66,1l1.13,1.52,1.59,2.1c.51.69,1.06,1.43,1.66,2.2a6.58,6.58,0,0,0,1.15,1.31,1.56,1.56,0,0,0,.44.18,3,3,0,0,0,.59,0l.08.09v.53l-.1.1a10.94,10.94,0,0,0-1.28-.07c-.53,0-1.1,0-1.73.07q-.78-.94-2.43-3.26c-1.28-1.79-2.6-3.46-3.94-5l.1-.35c.4,0,.7,0,.91,0a4.66,4.66,0,0,0,3-.92,3.24,3.24,0,0,0,1.1-2.58,2.64,2.64,0,0,0-1-2.23,4.2,4.2,0,0,0-2.66-.77,7.36,7.36,0,0,0-2.22.33,21.29,21.29,0,0,0-.18,4.2v5.19l0,2.19a14.76,14.76,0,0,0,.06,1.63,1,1,0,0,0,.16.49.83.83,0,0,0,.41.21,8.93,8.93,0,0,0,1.5.13l.09.07v.56l-.09.09-2-.07c-.53,0-.94,0-1.25,0l-3.21.09-.08-.09v-.56l.08-.07a9.39,9.39,0,0,0,1.4-.12,1.07,1.07,0,0,0,.47-.16,1.06,1.06,0,0,0,.19-.46,10.63,10.63,0,0,0,.09-1.54v-7.55l0-2.19c0-.85,0-1.41-.06-1.64a.89.89,0,0,0-.16-.49.74.74,0,0,0-.41-.21,10.3,10.3,0,0,0-1.5-.13l-.08-.07Z" transform="translate(-34.97 -66.2)"/><path class="cls-1" d="M209,143.8l-.1-.1v-.51l.1-.09a6.2,6.2,0,0,0,1.09-.08.79.79,0,0,0,.53-.22,1.1,1.1,0,0,0,.16-.5c0-.22,0-.75.07-1.56s0-1.4,0-1.75v-9.05a1.44,1.44,0,0,0-.2-.84,1,1,0,0,0-.56-.35,10.15,10.15,0,0,0-1.22-.09l-.09-.08V128l.09-.11c1,.05,1.7.06,2,.06.77,0,1.39,0,1.87-.06l3.57,4.65,5.27,6.59c.63.79,1.27,1.56,1.94,2.28v-8.68c0-.27,0-.84-.05-1.72s-.06-1.43-.09-1.66a.82.82,0,0,0-.19-.49,1.19,1.19,0,0,0-.53-.17,5.73,5.73,0,0,0-1-.09l-.09-.09V128l.09-.11c.6.05,1.47.06,2.58.06s1.77,0,2.24-.06l.1.11v.51l-.09.09a6,6,0,0,0-1.13.09.68.68,0,0,0-.52.25,1.27,1.27,0,0,0-.13.48c0,.22-.06.74-.08,1.56s0,1.4,0,1.75v5.32l0,3.09c0,1,0,2,0,3a18.21,18.21,0,0,0-1.94-.47l-.8-.94-2.38-2.91-7.59-9.5V139c0,.35,0,1,0,1.84a15.9,15.9,0,0,0,.09,1.6,1,1,0,0,0,.15.38.78.78,0,0,0,.38.21,5.36,5.36,0,0,0,1.24.1l.08.09v.53l-.08.08c-.4,0-1-.07-1.89-.07C210.78,143.73,209.81,143.76,209,143.8Z" transform="translate(-34.97 -66.2)"/><path class="cls-1" d="M225.66,143.83l-.1-.09v-.59l.1-.08a6.54,6.54,0,0,0,1.06-.09,1,1,0,0,0,.41-.3,8.19,8.19,0,0,0,.75-1.42L229,138.7l3.05-6.9c.57-1.35,1.15-2.7,1.72-4.06h.72L239.32,139l.65,1.5c.19.43.39.9.64,1.4a4.23,4.23,0,0,0,.5.88,1,1,0,0,0,.36.21,4.64,4.64,0,0,0,.92.09l.09.08v.59l-.09.09c-.79-.07-1.5-.1-2.13-.1l-3.72.1-.09-.09v-.59l.09-.08a9.3,9.3,0,0,0,1.57-.11.39.39,0,0,0,.31-.38,2.1,2.1,0,0,0-.16-.65l-1.38-3.41h-6.49l-1.22,2.86a3.39,3.39,0,0,0-.32,1.14.44.44,0,0,0,.29.41,5.43,5.43,0,0,0,1.53.15l.1.08v.59l-.09.09c-1-.06-1.81-.09-2.53-.09S226.5,143.77,225.66,143.83Zm5.1-6.28h5.68l-2.81-6.75Z" transform="translate(-34.97 -66.2)"/><path class="cls-1" d="M252.94,127.9l.1.11c-.07.66-.1,1.84-.1,3.51l-.09.09h-.53l-.08-.1-.12-1c-.06-.56-.12-.9-.15-1a.58.58,0,0,0-.16-.26,2.06,2.06,0,0,0-.73-.15c-.41,0-.87,0-1.37,0h-2.12c-.06,1.69-.09,2.66-.09,2.91v6.53l0,2.19c0,.84,0,1.4.06,1.65a.82.82,0,0,0,.16.48.79.79,0,0,0,.41.21,8.65,8.65,0,0,0,1.5.13l.07.07v.56l-.07.09-3.21-.09-3.19.09-.09-.09v-.56l.09-.07a9.54,9.54,0,0,0,1.4-.12.63.63,0,0,0,.66-.62,10.69,10.69,0,0,0,.07-1.54l0-2.37v-6.53q0-.18-.09-2.91h-1.66c-.69,0-1.28,0-1.78,0s-.8.1-.87.23a3.73,3.73,0,0,0-.22,1.21l-.12,1-.1.1h-.51l-.09-.09c0-1.79-.05-3-.11-3.51l.11-.11q1.94.09,6.48.09C249.53,128,251.7,128,252.94,127.9Z" transform="translate(-34.97 -66.2)"/><path class="cls-1" d="M254.06,127.9l1.39.05c.93,0,1.52,0,1.81,0l3.22-.09.09.09v.56l-.09.07a11.14,11.14,0,0,0-1.19.08,1.41,1.41,0,0,0-.62.16.86.86,0,0,0-.25.57,11.62,11.62,0,0,0-.06,1.27v9.94a14.75,14.75,0,0,0,.06,1.63,1,1,0,0,0,.16.49.9.9,0,0,0,.41.21,8.93,8.93,0,0,0,1.5.13l.09.07v.56l-.09.09-2-.07c-.53,0-.94,0-1.25,0l-3.2.09-.09-.09v-.56l.09-.07a9.34,9.34,0,0,0,1.38-.12.6.6,0,0,0,.65-.62,10.82,10.82,0,0,0,.09-1.54v-7.55l0-2.19c0-.85,0-1.41-.06-1.64a.89.89,0,0,0-.16-.49.75.75,0,0,0-.41-.21,10.25,10.25,0,0,0-1.48-.13l-.09-.07V128Z" transform="translate(-34.97 -66.2)"/><path class="cls-1" d="M261.57,136a10,10,0,0,1,.48-3.13,7.48,7.48,0,0,1,1.65-2.7,8.2,8.2,0,0,1,2.79-1.91,9.72,9.72,0,0,1,3.71-.67,8.65,8.65,0,0,1,6.08,2.07,7.29,7.29,0,0,1,2.27,5.67,9.2,9.2,0,0,1-1.12,4.55,7.69,7.69,0,0,1-3.17,3.13,9.59,9.59,0,0,1-4.65,1.12,9.09,9.09,0,0,1-3.37-.61,7,7,0,0,1-2.61-1.82,7.4,7.4,0,0,1-1.57-2.81A9.75,9.75,0,0,1,261.57,136Zm2.34-.74a10.64,10.64,0,0,0,.44,3,7.56,7.56,0,0,0,1.32,2.69,5.75,5.75,0,0,0,2,1.68,6.54,6.54,0,0,0,5.71-.25,5.16,5.16,0,0,0,2.06-2.47,9.66,9.66,0,0,0,.7-3.77,9.86,9.86,0,0,0-.81-4.09,5.28,5.28,0,0,0-2.29-2.64,6.61,6.61,0,0,0-3.31-.84,5.53,5.53,0,0,0-4.29,1.7A7.16,7.16,0,0,0,263.9,135.27Z" transform="translate(-34.97 -66.2)"/><path class="cls-1" d="M278.25,143.8l-.1-.1v-.51l.1-.09a6.21,6.21,0,0,0,1.09-.08.79.79,0,0,0,.53-.22,1.12,1.12,0,0,0,.16-.5c0-.22,0-.75.07-1.56s0-1.4,0-1.75v-9.05a1.45,1.45,0,0,0-.2-.84,1,1,0,0,0-.56-.35,10.17,10.17,0,0,0-1.22-.09l-.09-.08V128l.09-.11c1,.05,1.7.06,2,.06.77,0,1.38,0,1.87-.06l3.57,4.65,5.25,6.59c.64.79,1.28,1.56,2,2.28v-8.68c0-.27,0-.84-.05-1.72s-.06-1.43-.09-1.66a.83.83,0,0,0-.19-.49,1.19,1.19,0,0,0-.53-.17,5.69,5.69,0,0,0-1-.09l-.09-.09V128l.09-.11c.6.05,1.47.06,2.58.06s1.77,0,2.24-.06l.1.11v.51l-.09.09a6.37,6.37,0,0,0-1.15.09.71.71,0,0,0-.5.25,1.26,1.26,0,0,0-.13.48c0,.22-.06.74-.08,1.56s0,1.4,0,1.75v5.32l0,3.09c0,1,0,2,0,3a18.13,18.13,0,0,0-1.94-.47l-.8-.94-2.38-2.91-7.6-9.5V139c0,.35,0,1,0,1.84a15.49,15.49,0,0,0,.09,1.6,1,1,0,0,0,.15.38.79.79,0,0,0,.38.21,5.36,5.36,0,0,0,1.24.1l.08.09v.53l-.08.08c-.4,0-1-.07-1.89-.07C280.06,143.73,279.09,143.76,278.25,143.8Z" transform="translate(-34.97 -66.2)"/><path class="cls-1" d="M294.59,143.83l-.1-.09v-.59l.1-.08a6.54,6.54,0,0,0,1.06-.09,1,1,0,0,0,.41-.3,8.19,8.19,0,0,0,.75-1.42L298,138.7l3.05-6.9c.57-1.35,1.15-2.7,1.72-4.06h.72L308.26,139l.65,1.5c.19.43.39.9.64,1.4a4.21,4.21,0,0,0,.5.88,1,1,0,0,0,.36.21,4.64,4.64,0,0,0,.92.09l.09.08v.59l-.09.09c-.79-.07-1.5-.1-2.13-.1l-3.72.1-.09-.09v-.59l.09-.08A9.3,9.3,0,0,0,307,143a.38.38,0,0,0,.31-.38,2.13,2.13,0,0,0-.16-.65l-1.38-3.41h-6.49l-1.22,2.86a3.38,3.38,0,0,0-.32,1.14.44.44,0,0,0,.29.41,5.44,5.44,0,0,0,1.53.15l.1.08v.59l-.09.09c-1-.06-1.8-.09-2.53-.09S295.43,143.77,294.59,143.83Zm5.1-6.28h5.68l-2.81-6.75Z" transform="translate(-34.97 -66.2)"/><path class="cls-1" d="M309.95,128l.09-.09,3.21.09,3.22-.09.08.09v.56l-.08.07a11.19,11.19,0,0,0-1.2.08,1.32,1.32,0,0,0-.6.16.79.79,0,0,0-.25.57,11.59,11.59,0,0,0-.06,1.27l0,2.57v5c0,1.23,0,2.1,0,2.6l.06,1.94h2.28c1.82,0,2.95,0,3.41-.07a4.83,4.83,0,0,0,1.31-.33,11.63,11.63,0,0,0,.35-1.29c.15-.66.23-1.06.25-1.16l.1-.09h.55l.07.09a16.45,16.45,0,0,0-.19,1.73c-.06.87-.09,1.56-.09,2.09l-.09.09c-1.41,0-3.28-.07-5.59-.07l-3.26,0c-.75,0-1.52,0-2.28.09l-.09-.09v-.37l.09-.1c.45-.24.7-.39.76-.44a7.67,7.67,0,0,0,.13-1.46c.05-.91.08-2,.08-3.29v-4.81l0-2.19c0-.85,0-1.41-.06-1.64a1,1,0,0,0-.16-.49.78.78,0,0,0-.41-.21,10.54,10.54,0,0,0-1.5-.13l-.09-.07Z" transform="translate(-34.97 -66.2)"/></svg>