<svg id="Layer_1" data-name="Layer 1" xmlns="http://www.w3.org/2000/svg" viewBox="0 0 405.77 49.44"><defs><style>.cls-1,.cls-2{fill:#fff;}.cls-2{font-size:7.2px;font-family:Palatino;letter-spacing:5.04px;}</style></defs><title>footer-logo-partners</title><path class="cls-1" d="M54.93,1.72A82.38,82.38,0,0,1,80.54,5.89c0.4,0.2.4-.2,0.2-0.2C69.82,1.72,64.06.53,55.12,0.53S40.23,1.72,29.31,5.69c-0.4.2-.4,0.4,0.2,0.2C40,2.51,46.78,1.72,54.93,1.72" transform="translate(-1 -0.53)"/><path class="cls-1" d="M54.93,7.68c10.52-.2,25,1.19,36.73,6.75,0.4,0.2.4-.2,0.2-0.2-12.31-6.16-28-8.14-36.93-7.74C46,6.29,30.3,8.27,18,14.23c-0.4.2-.2,0.4,0.2,0.2,11.52-5.56,26-6.95,36.73-6.75" transform="translate(-1 -0.53)"/><path class="cls-1" d="M54.93,4.9c7.94-.2,21.45.79,31.77,5.36,0.4,0.2.4,0,.2-0.2-10.52-5-22.84-6.55-32-6.55C46,3.31,33.48,5.09,23,10.06c-0.4.2-.4,0.4,0.2,0.2C33.48,5.49,47,4.7,54.93,4.9" transform="translate(-1 -0.53)"/><rect class="cls-1" x="121.24" y="5.76" width="0.79" height="43.68"/><path class="cls-1" d="M133,21.39V21q0.83,0,1.41,0l1.47,0,1.43,0H138l0.6,0a7.6,7.6,0,0,0-.17,1.65h-0.34a6.55,6.55,0,0,0-.14-1,3.3,3.3,0,0,0-.7-0.14,8.91,8.91,0,0,0-1,0,10.36,10.36,0,0,0-1.14.06q0,0.29,0,.55t0,1.25v1.21l1.08,0a6.84,6.84,0,0,0,1.11-.07,0.32,0.32,0,0,0,.2-0.09,1.54,1.54,0,0,0,.1-0.46l0-.34H138l0,1.24,0,1.33h-0.34l0-.35a4.06,4.06,0,0,0-.09-0.64,0.31,0.31,0,0,0-.21-0.11,8.38,8.38,0,0,0-1.41-.07l-0.8,0v1.1q0,0.74,0,1.44a1.7,1.7,0,0,0,.07.62,0.36,0.36,0,0,0,.2.14,3.9,3.9,0,0,0,.79.06v0.35q-0.69,0-1.38,0l-1.8,0V28.43a3.85,3.85,0,0,0,.78-0.06,0.35,0.35,0,0,0,.2-0.13,1.39,1.39,0,0,0,.08-0.53q0-.11,0-1.55V23.65q0-.74,0-1.45a1.7,1.7,0,0,0-.08-0.61,0.37,0.37,0,0,0-.2-0.14A3.9,3.9,0,0,0,133,21.39Z" transform="translate(-1 -0.53)"/><path class="cls-1" d="M139,25a4.74,4.74,0,0,1,.26-1.59,3.41,3.41,0,0,1,.86-1.31,4,4,0,0,1,1.36-.88,4.72,4.72,0,0,1,1.73-.3,5,5,0,0,1,1.64.25,3.55,3.55,0,0,1,1.21.67,3.42,3.42,0,0,1,.74.91,3.48,3.48,0,0,1,.33.87,4.52,4.52,0,0,1,.12,1.07A4.13,4.13,0,0,1,146,27.72a4.25,4.25,0,0,1-3.12,1.22,4.51,4.51,0,0,1-1.6-.28,3.26,3.26,0,0,1-1.25-.83,3.64,3.64,0,0,1-.78-1.33A4.76,4.76,0,0,1,139,25Zm1.13-.45a5.53,5.53,0,0,0,.1,1.05,4.94,4.94,0,0,0,.26.92,3.4,3.4,0,0,0,.68,1.1,2.67,2.67,0,0,0,.94.65,3.06,3.06,0,0,0,1.15.21A2.71,2.71,0,0,0,144.8,28a2.57,2.57,0,0,0,1-1.21,4.68,4.68,0,0,0,.32-1.79,5.31,5.31,0,0,0-.23-1.6,3.34,3.34,0,0,0-.38-0.81,2.57,2.57,0,0,0-1.4-1.09,3.29,3.29,0,0,0-1.12-.19,2.93,2.93,0,0,0-1.52.39,2.41,2.41,0,0,0-1,1.12A4,4,0,0,0,140.13,24.5Z" transform="translate(-1 -0.53)"/><path class="cls-1" d="M147.38,21.39V21q0.89,0,1.65,0t1.54,0v0.35a3.88,3.88,0,0,0-.78.06,0.33,0.33,0,0,0-.19.13,1.28,1.28,0,0,0-.09.53q0,0.11,0,1.55v2a5,5,0,0,0,.15,1.54,1.43,1.43,0,0,0,.48.62,2,2,0,0,0,.68.3,3.7,3.7,0,0,0,.95.11,3.58,3.58,0,0,0,1.08-.15,1.91,1.91,0,0,0,.71-0.36,1.42,1.42,0,0,0,.35-0.48,2.59,2.59,0,0,0,.17-0.73,11,11,0,0,0,.05-1.18V23.65q0-.74,0-1.45a1.68,1.68,0,0,0-.07-0.61,0.37,0.37,0,0,0-.2-0.14,3.87,3.87,0,0,0-.78-0.06V21l1.31,0,1.35,0v0.35a3.86,3.86,0,0,0-.78.06,0.36,0.36,0,0,0-.19.13,1.4,1.4,0,0,0-.08.53q0,0.11,0,1.55v1.83a6.4,6.4,0,0,1-.19,1.88,2.13,2.13,0,0,1-.69.94,2.69,2.69,0,0,1-1,.47,5.3,5.3,0,0,1-2.77,0,2.29,2.29,0,0,1-.94-0.52,1.82,1.82,0,0,1-.44-0.66,5.15,5.15,0,0,1-.15-1.5V23.65q0-.74,0-1.45a1.7,1.7,0,0,0-.08-0.61,0.37,0.37,0,0,0-.2-0.14A3.9,3.9,0,0,0,147.38,21.39Z" transform="translate(-1 -0.53)"/><path class="cls-1" d="M156.27,28.78V28.43a2.3,2.3,0,0,0,.76-0.09,0.21,0.21,0,0,0,.11-0.1,1.92,1.92,0,0,0,.08-0.57q0-.72,0-1.24V22a0.77,0.77,0,0,0,0-.23,0.79,0.79,0,0,0-.2-0.23,0.47,0.47,0,0,0-.23-0.11,4.26,4.26,0,0,0-.57,0V21l1.18,0,0.82,0,0.67,0.89L160,23.32l1.63,2q0.78,0.94,1.25,1.49,0.3,0.36.51,0.57v-4q0-.53,0-1.25a2.07,2.07,0,0,0-.07-0.56,0.23,0.23,0,0,0-.11-0.1,2.36,2.36,0,0,0-.75-0.08V21l1.3,0,1.13,0v0.35a2.39,2.39,0,0,0-.75.08,0.2,0.2,0,0,0-.11.11,1.86,1.86,0,0,0-.08.57q0,0.72,0,1.24V26q0,0.79,0,3l-0.56-.16-0.13,0-0.06,0L163,28.53l-0.67-.78-0.7-.9-3.86-4.67V26.4q0,0.54,0,1.27a2,2,0,0,0,.07.56,0.22,0.22,0,0,0,.11.11,2.33,2.33,0,0,0,.75.08v0.35q-0.48,0-1.06,0T156.27,28.78Z" transform="translate(-1 -0.53)"/><path class="cls-1" d="M165.77,28.78V28.52c0.21-.12.38-0.23,0.52-0.33s0-.59.05-1q0-1.12,0-1.56V23.38q0-.53,0-1.25a1.85,1.85,0,0,0-.08-0.56,0.23,0.23,0,0,0-.11-0.1,2.39,2.39,0,0,0-.75-0.08V21l1.41,0,1.28,0,1.26,0a5.64,5.64,0,0,1,2.15.34,3.2,3.2,0,0,1,1.38,1.14,3.3,3.3,0,0,1,.57,2,4.45,4.45,0,0,1-.27,1.55,4.18,4.18,0,0,1-.72,1.27,4,4,0,0,1-1,.86,4.41,4.41,0,0,1-1.1.48,6.14,6.14,0,0,1-1.58.16l-0.9,0-1,0Zm1.68-.59a7.49,7.49,0,0,0,1.26.1,5.49,5.49,0,0,0,1.21-.12,3.18,3.18,0,0,0,.9-0.34,2.76,2.76,0,0,0,.72-0.64,3,3,0,0,0,.54-1.09,5,5,0,0,0,.19-1.37,3.86,3.86,0,0,0-.36-1.74,2.49,2.49,0,0,0-1.09-1.11,4.33,4.33,0,0,0-2-.39,9.23,9.23,0,0,0-1.36.1q0,0.27,0,.95l0,0.79V25.5l0,1.69Q167.43,27.58,167.46,28.18Z" transform="translate(-1 -0.53)"/><path class="cls-1" d="M173.91,28.78V28.43a2.27,2.27,0,0,0,.75-0.09,0.21,0.21,0,0,0,.11-0.1,1.92,1.92,0,0,0,.08-0.57q0-.72,0-1.24V23.65q0-.74,0-1.45a1.7,1.7,0,0,0-.08-0.61,0.37,0.37,0,0,0-.2-0.14,3.9,3.9,0,0,0-.79-0.06V21l1.55,0L177,21l1.72,0a8.22,8.22,0,0,1,1,.06,4.22,4.22,0,0,0-.12.54s0,0.41-.1,1.13h-0.34a5.87,5.87,0,0,0-.07-1,2.47,2.47,0,0,0-.66-0.17,9.86,9.86,0,0,0-1.22-.08l-0.58,0-0.65,0q0,0.6,0,1.13l0,1.84q0.64,0,1.17,0a8.78,8.78,0,0,0,1.11-.06,0.33,0.33,0,0,0,.22-0.09,1.32,1.32,0,0,0,.09-0.45l0-.38h0.33v0.1l0,1.13,0,1.27H178.5l0-.37a1.24,1.24,0,0,0-.07-0.5,0.35,0.35,0,0,0-.24-0.14A7.17,7.17,0,0,0,177,25l-1,0q0,0.54,0,1.62t0,1.53q0.78,0.06,1.76.06a7.58,7.58,0,0,0,1,0,2.3,2.3,0,0,0,.54-0.15,3.42,3.42,0,0,0,.13-0.46q0.12-.48.16-0.73h0.37a14.75,14.75,0,0,0-.14,1.83,7.68,7.68,0,0,1-1.14.07l-3.25,0Z" transform="translate(-1 -0.53)"/><path class="cls-1" d="M180.76,28.78V28.52c0.21-.12.38-0.23,0.52-0.33s0-.59.05-1q0-1.12,0-1.56V23.38q0-.53,0-1.25a1.85,1.85,0,0,0-.08-0.56,0.23,0.23,0,0,0-.11-0.1,2.39,2.39,0,0,0-.75-0.08V21l1.41,0,1.28,0,1.26,0a5.64,5.64,0,0,1,2.15.34,3.2,3.2,0,0,1,1.38,1.14,3.3,3.3,0,0,1,.57,2,4.45,4.45,0,0,1-.27,1.55,4.18,4.18,0,0,1-.72,1.27,4,4,0,0,1-1,.86,4.41,4.41,0,0,1-1.1.48,6.14,6.14,0,0,1-1.58.16l-0.9,0-1,0Zm1.68-.59a7.49,7.49,0,0,0,1.26.1,5.49,5.49,0,0,0,1.21-.12,3.18,3.18,0,0,0,.9-0.34,2.76,2.76,0,0,0,.72-0.64,3,3,0,0,0,.54-1.09,5,5,0,0,0,.19-1.37,3.86,3.86,0,0,0-.36-1.74,2.49,2.49,0,0,0-1.09-1.11,4.33,4.33,0,0,0-2-.39,9.23,9.23,0,0,0-1.36.1q0,0.27,0,.95l0,0.79V25.5l0,1.69Q182.42,27.58,182.45,28.18Z" transform="translate(-1 -0.53)"/><path class="cls-1" d="M192.29,28.78V28.52a2.29,2.29,0,0,0,.38-0.21,0.31,0.31,0,0,0,.06-0.14,5.79,5.79,0,0,0,.06-0.69c0-.35,0-0.62,0-0.81V23.38q0-.53,0-1.25a1.85,1.85,0,0,0-.08-0.56,0.23,0.23,0,0,0-.11-0.1,2.39,2.39,0,0,0-.75-0.08V21h0.45l1.13,0,2,0a3.61,3.61,0,0,1,1.23.16,1.37,1.37,0,0,1,.67.53,1.46,1.46,0,0,1,.24.82,1.6,1.6,0,0,1-.15.68,1.76,1.76,0,0,1-.39.55,2.13,2.13,0,0,1-.54.38,4.09,4.09,0,0,1-.78.26,5.5,5.5,0,0,1,1,.18,1.74,1.74,0,0,1,.66.35,1.48,1.48,0,0,1,.4.56,1.93,1.93,0,0,1,.14.74,2.21,2.21,0,0,1-.49,1.42,2.9,2.9,0,0,1-1.26.91,3.81,3.81,0,0,1-1.36.22l-1.58,0Zm1.55-4.52,0.55,0a4.07,4.07,0,0,0,1-.1,1.53,1.53,0,0,0,.57-0.27,1.29,1.29,0,0,0,.34-0.46,1.6,1.6,0,0,0,.13-0.68,1.11,1.11,0,0,0-.43-1,2.22,2.22,0,0,0-1.27-.3,4.27,4.27,0,0,0-.88.09q0,0.45,0,1.4v1.29Zm0,4a3.69,3.69,0,0,0,.86.1,2.63,2.63,0,0,0,1.16-.22,1.53,1.53,0,0,0,.68-0.67,2.15,2.15,0,0,0,.24-1,1.9,1.9,0,0,0-.22-1,1.35,1.35,0,0,0-.67-0.58,4.09,4.09,0,0,0-1.47-.19l-0.6,0v2.06Q193.85,27.06,193.86,28.22Z" transform="translate(-1 -0.53)"/><path class="cls-1" d="M198.26,21.52V21.19l1.31-.26a1,1,0,0,1,.3.14,3.38,3.38,0,0,1,.34.42,14,14,0,0,1,.89,1.41q0.51,0.89,1.08,2,0.58-.89,1.18-1.93l1.16-2h0.83v0.15q-0.3.33-1.1,1.44-0.46.64-1.2,1.87a7.84,7.84,0,0,0-.52.93,1,1,0,0,0-.06.32v0.42q0,0.74,0,1.44a1.73,1.73,0,0,0,.08.62,0.36,0.36,0,0,0,.2.14,3.88,3.88,0,0,0,.79.06v0.35q-0.89,0-1.54,0l-1.64,0V28.43a3.86,3.86,0,0,0,.78-0.06,0.33,0.33,0,0,0,.19-0.13,1.29,1.29,0,0,0,.09-0.53q0-.12,0-1.55V25.53q-0.11-.24-0.22-0.44l-0.56-.94-0.36-.59q-0.42-.7-0.63-1a5.53,5.53,0,0,0-.66-0.81,0.83,0.83,0,0,0-.3-0.19A1.58,1.58,0,0,0,198.26,21.52Z" transform="translate(-1 -0.53)"/><path class="cls-1" d="M209,28.78V28.52a2.3,2.3,0,0,0,.38-0.21,0.31,0.31,0,0,0,.06-0.14,6,6,0,0,0,.06-0.69c0-.35,0-0.62,0-0.81V23.38q0-.53,0-1.25a1.83,1.83,0,0,0-.08-0.56,0.23,0.23,0,0,0-.12-0.1,2.39,2.39,0,0,0-.75-0.08V21H209l1.13,0,2,0a3.6,3.6,0,0,1,1.23.16,1.36,1.36,0,0,1,.67.53,1.46,1.46,0,0,1,.24.82,1.62,1.62,0,0,1-.14.68,1.76,1.76,0,0,1-.39.55,2.11,2.11,0,0,1-.54.38,4.09,4.09,0,0,1-.78.26,5.5,5.5,0,0,1,1,.18,1.75,1.75,0,0,1,.66.35,1.49,1.49,0,0,1,.4.56,1.91,1.91,0,0,1,.14.74,2.21,2.21,0,0,1-.49,1.42,2.9,2.9,0,0,1-1.26.91,3.81,3.81,0,0,1-1.36.22l-1.58,0Zm1.55-4.52,0.55,0a4.06,4.06,0,0,0,1-.1,1.52,1.52,0,0,0,.57-0.27,1.28,1.28,0,0,0,.34-0.46,1.58,1.58,0,0,0,.13-0.68,1.11,1.11,0,0,0-.43-1,2.22,2.22,0,0,0-1.27-.3,4.26,4.26,0,0,0-.88.09q0,0.45,0,1.4v1.29Zm0,4a3.69,3.69,0,0,0,.86.1,2.63,2.63,0,0,0,1.16-.22,1.53,1.53,0,0,0,.68-0.67,2.15,2.15,0,0,0,.24-1,1.9,1.9,0,0,0-.22-1,1.35,1.35,0,0,0-.67-0.58,4.09,4.09,0,0,0-1.47-.19l-0.6,0v2.06Q210.52,27.06,210.54,28.22Z" transform="translate(-1 -0.53)"/><path class="cls-1" d="M215.05,21.39V21h0.65l1,0,1,0,1,0a4.53,4.53,0,0,1,1.52.19,1.47,1.47,0,0,1,.74.6,1.67,1.67,0,0,1,.26.91,1.89,1.89,0,0,1-.25.91,2,2,0,0,1-.71.75,3.7,3.7,0,0,1-1.21.46l0.64,0.85,1.38,1.81q0.59,0.76.69,0.84l0.1,0.05a1.42,1.42,0,0,0,.36,0v0.35q-0.41,0-.72,0t-0.79,0q-0.35-.41-1.19-1.59-0.46-.66-0.82-1.1-0.57-.73-1.09-1.32l0.05-.16,0.43,0a2.15,2.15,0,0,0,1.5-.47,1.6,1.6,0,0,0,.51-1.24,1.36,1.36,0,0,0-.44-1.07,2,2,0,0,0-1.34-.4,3.66,3.66,0,0,0-1.1.17c0,0.2,0,.38,0,0.55s0,0.58,0,1.58v2.42q0,0.74,0,1.44a1.71,1.71,0,0,0,.07.62,0.36,0.36,0,0,0,.2.14,3.87,3.87,0,0,0,.78.06v0.35q-0.77,0-1.42,0l-1.76,0V28.43a3.86,3.86,0,0,0,.78-0.06,0.36,0.36,0,0,0,.2-0.13,1.4,1.4,0,0,0,.08-0.53q0-.11,0-1.55V23.65q0-.74,0-1.45a1.7,1.7,0,0,0-.08-0.61,0.37,0.37,0,0,0-.2-0.14A3.91,3.91,0,0,0,215.05,21.39Z" transform="translate(-1 -0.53)"/><path class="cls-1" d="M225.87,28.43v0.35l-1.52,0-1.68,0V28.43a3.86,3.86,0,0,0,.78-0.06,0.36,0.36,0,0,0,.2-0.13,1.4,1.4,0,0,0,.08-0.53q0-.11,0-1.55V23.65q0-.74,0-1.45a1.7,1.7,0,0,0-.08-0.61,0.37,0.37,0,0,0-.2-0.14,3.91,3.91,0,0,0-.79-0.06V21l1.61,0,1.6,0v0.35a3.86,3.86,0,0,0-.78.06,0.36,0.36,0,0,0-.19.13,1.38,1.38,0,0,0-.08.53q0,0.11,0,1.55v2.52q0,0.74,0,1.44a1.78,1.78,0,0,0,.08.62,0.36,0.36,0,0,0,.2.14A3.89,3.89,0,0,0,225.87,28.43Z" transform="translate(-1 -0.53)"/><path class="cls-1" d="M233.58,28.35a9.77,9.77,0,0,1-1.36.4,9.4,9.4,0,0,1-1.77.18,4.92,4.92,0,0,1-2.24-.49,3.62,3.62,0,0,1-1.52-1.38,4,4,0,0,1-.53-2.1,3.77,3.77,0,0,1,1.34-3,4.3,4.3,0,0,1,1.15-.71,5.9,5.9,0,0,1,2.17-.35,6.85,6.85,0,0,1,1.27.14q0.67,0.13,1.51.37a4.5,4.5,0,0,0-.13.54q0,0.27-.11,1.1H233l0-.62c0-.09,0-0.17,0-0.23a0.62,0.62,0,0,0-.07-0.22,1.29,1.29,0,0,0-.47-0.35,5.85,5.85,0,0,0-.92-0.28,4.59,4.59,0,0,0-.86-0.07,3.5,3.5,0,0,0-1.79.44,2.82,2.82,0,0,0-1.15,1.26,4.15,4.15,0,0,0-.39,1.8,4.06,4.06,0,0,0,.46,1.93A3.27,3.27,0,0,0,229,28a3.43,3.43,0,0,0,1.79.46,4.61,4.61,0,0,0,.93-0.09,2.9,2.9,0,0,0,.76-0.26,3.56,3.56,0,0,0,0-.7V26.79a1.71,1.71,0,0,0,0-.56,0.39,0.39,0,0,0-.26-0.12,8.28,8.28,0,0,0-1-.06V25.71l1.7,0q0.5,0,1,0L234,26l-0.41.24a9.62,9.62,0,0,0-.07,1.07A9.34,9.34,0,0,0,233.58,28.35Z" transform="translate(-1 -0.53)"/><path class="cls-1" d="M234.41,21.39V21l1.67,0,1.54,0v0.35a3.87,3.87,0,0,0-.78.06,0.36,0.36,0,0,0-.19.13,1.4,1.4,0,0,0-.08.53q0,0.11,0,1.55v0.76q1.07,0,2.62,0,1.18,0,1.89,0V23.65q0-.74,0-1.45a1.74,1.74,0,0,0-.08-0.61,0.37,0.37,0,0,0-.2-0.14,3.86,3.86,0,0,0-.78-0.06V21l1.61,0,1.59,0v0.35a3.87,3.87,0,0,0-.78.06,0.33,0.33,0,0,0-.19.13,1.31,1.31,0,0,0-.09.53q0,0.11,0,1.55v2.52q0,0.74,0,1.44a1.74,1.74,0,0,0,.07.62,0.36,0.36,0,0,0,.2.14,3.85,3.85,0,0,0,.78.06v0.35l-1.72,0q-0.71,0-1.48,0V28.43a3.88,3.88,0,0,0,.79-0.06,0.36,0.36,0,0,0,.19-0.13,1.25,1.25,0,0,0,.08-0.53q0-.11,0-1.54V24.94l-2.32,0q-0.86,0-2.19,0v1.24q0,0.74,0,1.44a1.72,1.72,0,0,0,.08.61,0.36,0.36,0,0,0,.2.14,3.89,3.89,0,0,0,.79.06v0.35q-0.74,0-1.52,0t-1.69,0V28.43a3.85,3.85,0,0,0,.78-0.06,0.36,0.36,0,0,0,.2-0.13,1.38,1.38,0,0,0,.08-0.53q0-.11,0-1.55V23.65q0-.74,0-1.45a1.75,1.75,0,0,0-.08-0.61,0.37,0.37,0,0,0-.2-0.14A3.9,3.9,0,0,0,234.41,21.39Z" transform="translate(-1 -0.53)"/><path class="cls-1" d="M243.68,28.78V28.41a2.78,2.78,0,0,0,.54,0,0.47,0.47,0,0,0,.2-0.11,1.76,1.76,0,0,0,.26-0.44l0.71-1.53,1.36-3.07q0.22-.51,1-2.26H248l2.33,5.47q0.57,1.33.75,1.67a0.56,0.56,0,0,0,.23.25,1.59,1.59,0,0,0,.55.07v0.37q-0.85-.05-1.19-0.05l-1.76.05V28.41a5.89,5.89,0,0,0,.74,0,0.32,0.32,0,0,0,.18-0.08,0.18,0.18,0,0,0,0-.13,0.89,0.89,0,0,0-.08-0.31l-0.67-1.67H246l-0.59,1.4a1.64,1.64,0,0,0-.16.55,0.18,0.18,0,0,0,0,.13,0.33,0.33,0,0,0,.19.1,4,4,0,0,0,.71,0v0.37q-0.92,0-1.38,0T243.68,28.78Zm2.54-3.06H249l-1.36-3.28Z" transform="translate(-1 -0.53)"/><path class="cls-1" d="M252.44,21.39V21l1.1,0,1,0q0.48,1.09.88,1.91l2.07,4.25,1.86-3.9q0.76-1.59,1-2.26l1,0,1.18,0v0.35a3.91,3.91,0,0,0-.79.06,0.36,0.36,0,0,0-.19.13,1.27,1.27,0,0,0-.08.53q0,0.11,0,1.55v2.52q0,0.74,0,1.44a1.73,1.73,0,0,0,.08.62,0.36,0.36,0,0,0,.2.14,3.85,3.85,0,0,0,.78.06v0.35l-1.55,0-1.61,0V28.43a3.93,3.93,0,0,0,.79-0.06,0.33,0.33,0,0,0,.19-0.13,1.25,1.25,0,0,0,.08-0.53q0-.11,0-1.55v-4l-1.88,3.93q-0.44.92-.69,1.48-0.18.41-.54,1.3h-0.21a3.28,3.28,0,0,0-.13-0.33l-0.37-.79L254,22.35v3.82q0,0.74,0,1.44a1.73,1.73,0,0,0,.08.62,0.36,0.36,0,0,0,.2.14,3.88,3.88,0,0,0,.79.06v0.35l-1.31,0-1.36,0V28.43a3.87,3.87,0,0,0,.78-0.06,0.36,0.36,0,0,0,.2-0.13,1.4,1.4,0,0,0,.08-0.53q0-.11,0-1.55V23.65q0-.74,0-1.45a1.7,1.7,0,0,0-.08-0.61,0.37,0.37,0,0,0-.2-0.14A3.91,3.91,0,0,0,252.44,21.39Z" transform="translate(-1 -0.53)"/><path class="cls-1" d="M265.77,28.78V28.41a2.78,2.78,0,0,0,.54,0,0.47,0.47,0,0,0,.2-0.11,1.76,1.76,0,0,0,.26-0.44l0.71-1.53,1.36-3.07q0.22-.51,1-2.26h0.35l2.33,5.47q0.57,1.33.75,1.67a0.56,0.56,0,0,0,.23.25,1.59,1.59,0,0,0,.55.07v0.37q-0.85-.05-1.19-0.05l-1.76.05V28.41a5.89,5.89,0,0,0,.74,0,0.32,0.32,0,0,0,.18-0.08,0.18,0.18,0,0,0,0-.13,0.89,0.89,0,0,0-.08-0.31l-0.67-1.67h-3.16l-0.59,1.4a1.64,1.64,0,0,0-.16.55,0.18,0.18,0,0,0,0,.13,0.33,0.33,0,0,0,.19.1,4,4,0,0,0,.71,0v0.37q-0.92,0-1.38,0T265.77,28.78Zm2.54-3.06h2.75l-1.36-3.28Z" transform="translate(-1 -0.53)"/><path class="cls-1" d="M274.59,28.78V28.43a2.3,2.3,0,0,0,.76-0.09,0.21,0.21,0,0,0,.11-0.1,1.88,1.88,0,0,0,.08-0.57q0-.72,0-1.24V22a0.77,0.77,0,0,0,0-.23,0.76,0.76,0,0,0-.2-0.23,0.47,0.47,0,0,0-.23-0.11,4.27,4.27,0,0,0-.57,0V21l1.18,0,0.82,0,0.67,0.89,1.11,1.39,1.63,2q0.78,0.94,1.25,1.49,0.3,0.36.51,0.57v-4q0-.53,0-1.25a2.11,2.11,0,0,0-.07-0.56,0.22,0.22,0,0,0-.12-0.1,2.35,2.35,0,0,0-.75-0.08V21l1.3,0,1.13,0v0.35a2.39,2.39,0,0,0-.75.08,0.2,0.2,0,0,0-.11.11,1.84,1.84,0,0,0-.08.57q0,0.72,0,1.24V26q0,0.79,0,3l-0.56-.16-0.13,0-0.06,0-0.21-.22-0.67-.78-0.7-.9-3.87-4.67V26.4q0,0.54,0,1.27a2,2,0,0,0,.07.56,0.22,0.22,0,0,0,.11.11,2.34,2.34,0,0,0,.75.08v0.35q-0.48,0-1.06,0T274.59,28.78Z" transform="translate(-1 -0.53)"/><path class="cls-1" d="M284.09,28.78V28.52c0.21-.12.38-0.23,0.52-0.33s0-.59.05-1q0-1.12,0-1.56V23.38q0-.53,0-1.25a1.83,1.83,0,0,0-.08-0.56,0.23,0.23,0,0,0-.12-0.1,2.39,2.39,0,0,0-.75-0.08V21l1.41,0,1.28,0,1.26,0a5.64,5.64,0,0,1,2.15.34,3.19,3.19,0,0,1,1.38,1.14,3.3,3.3,0,0,1,.57,2,4.46,4.46,0,0,1-.27,1.55,4.21,4.21,0,0,1-.72,1.27,4,4,0,0,1-1,.86,4.42,4.42,0,0,1-1.1.48,6.15,6.15,0,0,1-1.58.16l-0.9,0-1,0Zm1.68-.59a7.49,7.49,0,0,0,1.26.1,5.48,5.48,0,0,0,1.21-.12,3.18,3.18,0,0,0,.9-0.34,2.74,2.74,0,0,0,.72-0.64,3,3,0,0,0,.54-1.09,5,5,0,0,0,.19-1.37,3.87,3.87,0,0,0-.36-1.74,2.49,2.49,0,0,0-1.09-1.11,4.32,4.32,0,0,0-2-.39,9.22,9.22,0,0,0-1.36.1c0,0.18,0,.49,0,0.95l0,0.79V25.5l0,1.69Q285.75,27.58,285.78,28.18Z" transform="translate(-1 -0.53)"/><path class="cls-1" d="M297.6,28.84l-0.5-2.27L296,22.08a1.33,1.33,0,0,0-.22-0.56,1.69,1.69,0,0,0-.68-0.16V21l1.38,0L298,21v0.33a3.37,3.37,0,0,0-.82.08,0.16,0.16,0,0,0-.07.15,3,3,0,0,0,.07.48q0.18,1,.24,1.24l0.86,3.77,1.35-3.35q0.53-1.32,1-2.78H301q0.5,1.55.9,2.65l1.28,3.55,0.93-3.25q0.25-.87.46-1.81a4.26,4.26,0,0,0,.1-0.5,0.17,0.17,0,0,0-.09-0.17,3.73,3.73,0,0,0-.87-0.07V21l1.17,0L306,21v0.33a1.21,1.21,0,0,0-.5.08,0.52,0.52,0,0,0-.21.26q-0.08.19-.46,1.44L304.26,25q-0.08.27-.34,1.24l-0.7,2.63h-0.56q-0.6-1.8-.94-2.7l-1.24-3.36-1.08,2.69-0.68,1.78-0.24.65-0.32.94H297.6Z" transform="translate(-1 -0.53)"/><path class="cls-1" d="M305.89,25a4.73,4.73,0,0,1,.26-1.59,3.39,3.39,0,0,1,.86-1.31,4,4,0,0,1,1.36-.88,4.72,4.72,0,0,1,1.73-.3,5,5,0,0,1,1.63.25,3.54,3.54,0,0,1,1.21.67,3.41,3.41,0,0,1,.74.91,3.46,3.46,0,0,1,.33.87,4.5,4.5,0,0,1,.12,1.07,4.13,4.13,0,0,1-1.23,3.06,4.25,4.25,0,0,1-3.12,1.22,4.51,4.51,0,0,1-1.6-.28,3.26,3.26,0,0,1-1.25-.83,3.63,3.63,0,0,1-.78-1.33A4.77,4.77,0,0,1,305.89,25ZM307,24.5a5.49,5.49,0,0,0,.1,1.05,4.87,4.87,0,0,0,.26.92,3.4,3.4,0,0,0,.68,1.1,2.66,2.66,0,0,0,.94.65,3.06,3.06,0,0,0,1.15.21,2.71,2.71,0,0,0,1.53-.43,2.57,2.57,0,0,0,1-1.21A4.68,4.68,0,0,0,313,25a5.33,5.33,0,0,0-.23-1.6,3.36,3.36,0,0,0-.38-0.81,2.57,2.57,0,0,0-1.4-1.09,3.29,3.29,0,0,0-1.12-.19,2.93,2.93,0,0,0-1.52.39,2.41,2.41,0,0,0-1,1.12A4,4,0,0,0,307,24.5Z" transform="translate(-1 -0.53)"/><path class="cls-1" d="M314.34,21.39V21l1.1,0,1,0q0.48,1.09.88,1.91l2.07,4.25,1.86-3.9q0.76-1.59,1-2.26l1,0,1.18,0v0.35a3.91,3.91,0,0,0-.79.06,0.36,0.36,0,0,0-.19.13,1.27,1.27,0,0,0-.08.53q0,0.11,0,1.55v2.52q0,0.74,0,1.44a1.73,1.73,0,0,0,.08.62,0.36,0.36,0,0,0,.2.14,3.85,3.85,0,0,0,.78.06v0.35l-1.55,0-1.61,0V28.43a3.93,3.93,0,0,0,.79-0.06,0.33,0.33,0,0,0,.19-0.13,1.25,1.25,0,0,0,.08-0.53q0-.11,0-1.55v-4l-1.88,3.93q-0.44.92-.69,1.48-0.18.41-.54,1.3H319a3.28,3.28,0,0,0-.13-0.33l-0.37-.79-2.61-5.41v3.82q0,0.74,0,1.44a1.73,1.73,0,0,0,.08.62,0.36,0.36,0,0,0,.2.14,3.88,3.88,0,0,0,.79.06v0.35l-1.31,0-1.36,0V28.43a3.87,3.87,0,0,0,.78-0.06,0.36,0.36,0,0,0,.2-0.13,1.4,1.4,0,0,0,.08-0.53q0-.11,0-1.55V23.65q0-.74,0-1.45a1.7,1.7,0,0,0-.08-0.61,0.37,0.37,0,0,0-.2-0.14A3.91,3.91,0,0,0,314.34,21.39Z" transform="translate(-1 -0.53)"/><path class="cls-1" d="M325.11,28.78V28.43a2.27,2.27,0,0,0,.75-0.09,0.21,0.21,0,0,0,.11-0.1,1.94,1.94,0,0,0,.08-0.57q0-.72,0-1.24V23.65q0-.74,0-1.45a1.75,1.75,0,0,0-.08-0.61,0.37,0.37,0,0,0-.2-0.14,3.9,3.9,0,0,0-.79-0.06V21l1.55,0,1.65,0,1.72,0a8.2,8.2,0,0,1,1,.06,4.49,4.49,0,0,0-.12.54s0,0.41-.1,1.13h-0.34a5.82,5.82,0,0,0-.07-1,2.47,2.47,0,0,0-.66-0.17,9.84,9.84,0,0,0-1.22-.08l-0.58,0-0.65,0c0,0.4,0,.78,0,1.13l0,1.84q0.64,0,1.17,0a8.78,8.78,0,0,0,1.11-.06,0.33,0.33,0,0,0,.22-0.09,1.32,1.32,0,0,0,.09-0.45l0-.38h0.33v0.1l0,1.13,0,1.27H329.7l0-.37a1.27,1.27,0,0,0-.07-0.5,0.35,0.35,0,0,0-.24-0.14,7.17,7.17,0,0,0-1.21-.07l-1,0q0,0.54,0,1.62t0,1.53q0.78,0.06,1.76.06a7.59,7.59,0,0,0,1,0,2.31,2.31,0,0,0,.54-0.15,3.35,3.35,0,0,0,.13-0.46c0.08-.32.13-0.57,0.16-0.73h0.37a15,15,0,0,0-.14,1.83,7.67,7.67,0,0,1-1.14.07l-3.25,0Z" transform="translate(-1 -0.53)"/><path class="cls-1" d="M331.72,28.78V28.43a2.3,2.3,0,0,0,.76-0.09,0.21,0.21,0,0,0,.11-0.1,1.88,1.88,0,0,0,.08-0.57q0-.72,0-1.24V22a0.77,0.77,0,0,0,0-.23,0.76,0.76,0,0,0-.2-0.23,0.47,0.47,0,0,0-.23-0.11,4.27,4.27,0,0,0-.57,0V21l1.18,0,0.82,0,0.67,0.89,1.11,1.39,1.63,2q0.78,0.94,1.25,1.49,0.3,0.36.51,0.57v-4q0-.53,0-1.25a2.11,2.11,0,0,0-.07-0.56,0.22,0.22,0,0,0-.12-0.1,2.35,2.35,0,0,0-.75-0.08V21l1.3,0,1.13,0v0.35a2.39,2.39,0,0,0-.75.08,0.2,0.2,0,0,0-.11.11,1.84,1.84,0,0,0-.08.57q0,0.72,0,1.24V26q0,0.79,0,3l-0.56-.16-0.13,0-0.06,0-0.21-.22-0.67-.78-0.7-.9-3.87-4.67V26.4q0,0.54,0,1.27a2,2,0,0,0,.07.56,0.22,0.22,0,0,0,.11.11,2.34,2.34,0,0,0,.75.08v0.35q-0.48,0-1.06,0T331.72,28.78Z" transform="translate(-1 -0.53)"/><path class="cls-1" d="M340.88,23.83l-0.16-.12a6.59,6.59,0,0,0,.41-0.7,4.34,4.34,0,0,0,.28-0.77,6.9,6.9,0,0,0,.18-1,9.4,9.4,0,0,0,1.06-.32l0.16,0.13a11.32,11.32,0,0,1-.71,1.47,7.48,7.48,0,0,1-.73,1Z" transform="translate(-1 -0.53)"/><path class="cls-1" d="M343.62,28.51a12.67,12.67,0,0,0,.1-1.69h0.37a4,4,0,0,0,.09.94,0.82,0.82,0,0,0,.3.31,2.5,2.5,0,0,0,.64.29,2.56,2.56,0,0,0,.78.13,2.07,2.07,0,0,0,1-.25,1.59,1.59,0,0,0,.68-0.67,1.89,1.89,0,0,0,.21-0.88,1.63,1.63,0,0,0-.11-0.62,1,1,0,0,0-.32-0.42,1.35,1.35,0,0,0-.54-0.23L346,25.3q-0.6-.08-1-0.17a2.3,2.3,0,0,1-.83-0.41,1.7,1.7,0,0,1-.43-0.61,2,2,0,0,1-.17-0.82,2.34,2.34,0,0,1,.33-1.21,2.24,2.24,0,0,1,1-.88,3.25,3.25,0,0,1,1.42-.32,4.64,4.64,0,0,1,1,.12,4.53,4.53,0,0,1,1,.36,5.68,5.68,0,0,0-.11.64q0,0.3,0,.87h-0.37a5.91,5.91,0,0,0,0-.92,1.39,1.39,0,0,0-.37-0.35,2.37,2.37,0,0,0-1.17-.32A1.64,1.64,0,0,0,344.51,23a1.29,1.29,0,0,0,.17.72,1.16,1.16,0,0,0,.61.41,5.61,5.61,0,0,0,1,.19q0.68,0.09,1.23.2a2.09,2.09,0,0,1,.76.36,1.58,1.58,0,0,1,.4.55,1.88,1.88,0,0,1,.16.8,2.47,2.47,0,0,1-.9,1.89,3.35,3.35,0,0,1-2.33.81A4.42,4.42,0,0,1,343.62,28.51Z" transform="translate(-1 -0.53)"/><path class="cls-1" d="M352.19,21.39V21l1.67,0,1.54,0v0.35a3.87,3.87,0,0,0-.78.06,0.36,0.36,0,0,0-.19.13,1.4,1.4,0,0,0-.08.53q0,0.11,0,1.55v0.76q1.07,0,2.62,0,1.18,0,1.89,0V23.65q0-.74,0-1.45a1.74,1.74,0,0,0-.08-0.61,0.37,0.37,0,0,0-.2-0.14,3.86,3.86,0,0,0-.78-0.06V21l1.61,0,1.59,0v0.35a3.87,3.87,0,0,0-.78.06,0.33,0.33,0,0,0-.19.13,1.31,1.31,0,0,0-.09.53q0,0.11,0,1.55v2.52q0,0.74,0,1.44a1.74,1.74,0,0,0,.07.62,0.36,0.36,0,0,0,.2.14,3.85,3.85,0,0,0,.78.06v0.35l-1.72,0q-0.71,0-1.48,0V28.43a3.88,3.88,0,0,0,.79-0.06,0.36,0.36,0,0,0,.19-0.13,1.25,1.25,0,0,0,.08-0.53q0-.11,0-1.54V24.94l-2.32,0q-0.86,0-2.19,0v1.24q0,0.74,0,1.44a1.72,1.72,0,0,0,.08.61,0.36,0.36,0,0,0,.2.14,3.89,3.89,0,0,0,.79.06v0.35q-0.74,0-1.52,0t-1.69,0V28.43a3.85,3.85,0,0,0,.78-0.06,0.36,0.36,0,0,0,.2-0.13,1.38,1.38,0,0,0,.08-0.53q0-.11,0-1.55V23.65q0-.74,0-1.45a1.75,1.75,0,0,0-.08-0.61,0.37,0.37,0,0,0-.2-0.14A3.9,3.9,0,0,0,352.19,21.39Z" transform="translate(-1 -0.53)"/><path class="cls-1" d="M361.22,25a4.73,4.73,0,0,1,.26-1.59,3.39,3.39,0,0,1,.86-1.31,4,4,0,0,1,1.36-.88,4.72,4.72,0,0,1,1.73-.3,5,5,0,0,1,1.63.25,3.54,3.54,0,0,1,1.21.67,3.41,3.41,0,0,1,.74.91,3.46,3.46,0,0,1,.33.87,4.5,4.5,0,0,1,.12,1.07,4.13,4.13,0,0,1-1.23,3.06,4.25,4.25,0,0,1-3.12,1.22,4.51,4.51,0,0,1-1.6-.28,3.26,3.26,0,0,1-1.25-.83,3.63,3.63,0,0,1-.78-1.33A4.77,4.77,0,0,1,361.22,25Zm1.13-.45a5.49,5.49,0,0,0,.1,1.05,4.87,4.87,0,0,0,.26.92,3.4,3.4,0,0,0,.68,1.1,2.66,2.66,0,0,0,.94.65,3.06,3.06,0,0,0,1.15.21A2.71,2.71,0,0,0,367,28a2.57,2.57,0,0,0,1-1.21,4.68,4.68,0,0,0,.32-1.79,5.33,5.33,0,0,0-.23-1.6,3.36,3.36,0,0,0-.38-0.81,2.57,2.57,0,0,0-1.4-1.09,3.29,3.29,0,0,0-1.12-.19,2.93,2.93,0,0,0-1.52.39,2.41,2.41,0,0,0-1,1.12A4,4,0,0,0,362.35,24.5Z" transform="translate(-1 -0.53)"/><path class="cls-1" d="M370.09,28.51a12.67,12.67,0,0,0,.1-1.69h0.37a4,4,0,0,0,.09.94,0.82,0.82,0,0,0,.3.31,2.5,2.5,0,0,0,.64.29,2.56,2.56,0,0,0,.78.13,2.07,2.07,0,0,0,1-.25,1.59,1.59,0,0,0,.68-0.67,1.89,1.89,0,0,0,.21-0.88,1.63,1.63,0,0,0-.11-0.62,1,1,0,0,0-.32-0.42,1.35,1.35,0,0,0-.54-0.23l-0.81-.11q-0.6-.08-1-0.17a2.3,2.3,0,0,1-.83-0.41,1.7,1.7,0,0,1-.43-0.61,2,2,0,0,1-.17-0.82,2.34,2.34,0,0,1,.33-1.21,2.24,2.24,0,0,1,1-.88,3.25,3.25,0,0,1,1.42-.32,4.64,4.64,0,0,1,1,.12,4.53,4.53,0,0,1,1,.36,5.68,5.68,0,0,0-.11.64q0,0.3,0,.87H374.3a5.91,5.91,0,0,0,0-.92,1.39,1.39,0,0,0-.37-0.35,2.37,2.37,0,0,0-1.17-.32A1.64,1.64,0,0,0,371,23a1.29,1.29,0,0,0,.17.72,1.16,1.16,0,0,0,.61.41,5.61,5.61,0,0,0,1,.19q0.68,0.09,1.23.2a2.09,2.09,0,0,1,.76.36,1.58,1.58,0,0,1,.4.55,1.88,1.88,0,0,1,.16.8,2.47,2.47,0,0,1-.9,1.89,3.35,3.35,0,0,1-2.33.81A4.42,4.42,0,0,1,370.09,28.51Z" transform="translate(-1 -0.53)"/><path class="cls-1" d="M375.66,21.39V21l1.73,0h0.91l0.86,0h0.26a3.91,3.91,0,0,1,1.36.19,1.59,1.59,0,0,1,.77.61,1.68,1.68,0,0,1,.28,1,2.15,2.15,0,0,1-.23,1,2.2,2.2,0,0,1-.67.8A2.91,2.91,0,0,1,380,25a2.54,2.54,0,0,1-.74.1,4,4,0,0,1-.75-0.08l-0.11-.4a3.55,3.55,0,0,0,.76.11,1.61,1.61,0,0,0,.78-0.2,1.37,1.37,0,0,0,.57-0.6,1.93,1.93,0,0,0,.2-0.89,1.8,1.8,0,0,0-.2-0.85,1.3,1.3,0,0,0-.6-0.58,2.24,2.24,0,0,0-1-.2,3.75,3.75,0,0,0-1.11.19q0,0.58,0,1.81v2.75q0,0.74,0,1.44a1.73,1.73,0,0,0,.08.62,0.36,0.36,0,0,0,.2.14,3.89,3.89,0,0,0,.79.06v0.35l-1.48,0-1.71,0V28.43a3.86,3.86,0,0,0,.78-0.06,0.36,0.36,0,0,0,.2-0.13,1.4,1.4,0,0,0,.08-0.53q0-.11,0-1.55V23.65q0-.74,0-1.45a1.74,1.74,0,0,0-.08-0.61,0.37,0.37,0,0,0-.2-0.14A3.91,3.91,0,0,0,375.66,21.39Z" transform="translate(-1 -0.53)"/><path class="cls-1" d="M385.34,28.43v0.35l-1.52,0-1.68,0V28.43a3.86,3.86,0,0,0,.78-0.06,0.36,0.36,0,0,0,.2-0.13,1.4,1.4,0,0,0,.08-0.53q0-.11,0-1.55V23.65q0-.74,0-1.45a1.7,1.7,0,0,0-.08-0.61,0.37,0.37,0,0,0-.2-0.14,3.91,3.91,0,0,0-.79-0.06V21l1.61,0,1.6,0v0.35a3.86,3.86,0,0,0-.78.06,0.36,0.36,0,0,0-.19.13,1.38,1.38,0,0,0-.08.53q0,0.11,0,1.55v2.52q0,0.74,0,1.44a1.78,1.78,0,0,0,.08.62,0.36,0.36,0,0,0,.2.14A3.89,3.89,0,0,0,385.34,28.43Z" transform="translate(-1 -0.53)"/><path class="cls-1" d="M386.3,22.84H386q0-1.3-.05-1.8l1.86,0.05,1.37,0,1.72,0,1.42,0q-0.07.61-.09,1.8h-0.35l0-.52q0-.47-0.06-0.54a0.18,0.18,0,0,0,0-.09l-0.09,0-0.54,0-0.74,0h-0.67q-0.05.52-.05,1.41v3.19q0,0.74,0,1.44a1.73,1.73,0,0,0,.08.62,0.36,0.36,0,0,0,.2.14,3.88,3.88,0,0,0,.79.06v0.35l-1.47,0-1.7,0V28.43a3.89,3.89,0,0,0,.79-0.06,0.32,0.32,0,0,0,.19-0.13,1.29,1.29,0,0,0,.09-0.53q0-.11,0-1.55V23c0-.15,0-0.32,0-0.5l0-.92h-0.81a9,9,0,0,0-1.12.05,0.24,0.24,0,0,0-.17.07,2,2,0,0,0-.11.59Z" transform="translate(-1 -0.53)"/><path class="cls-1" d="M392,28.78V28.41a2.78,2.78,0,0,0,.54,0,0.47,0.47,0,0,0,.2-0.11,1.76,1.76,0,0,0,.26-0.44l0.71-1.53,1.36-3.07q0.22-.51,1-2.26h0.35l2.33,5.47q0.57,1.33.75,1.67a0.56,0.56,0,0,0,.23.25,1.59,1.59,0,0,0,.55.07v0.37q-0.85-.05-1.19-0.05l-1.76.05V28.41a5.89,5.89,0,0,0,.74,0,0.32,0.32,0,0,0,.18-0.08,0.18,0.18,0,0,0,0-.13,0.89,0.89,0,0,0-.08-0.31l-0.67-1.67h-3.16l-0.59,1.4a1.64,1.64,0,0,0-.16.55,0.18,0.18,0,0,0,0,.13,0.33,0.33,0,0,0,.19.1,4,4,0,0,0,.71,0v0.37q-0.92,0-1.38,0T392,28.78Zm2.54-3.06h2.75l-1.36-3.28Z" transform="translate(-1 -0.53)"/><path class="cls-1" d="M401,28.78V28.5a1.76,1.76,0,0,0,.43-0.25,0.26,0.26,0,0,0,.08-0.12,3,3,0,0,0,.06-0.65q0-.75,0-0.89V23.65q0-.74,0-1.45a1.75,1.75,0,0,0-.08-0.61,0.37,0.37,0,0,0-.2-0.14,3.9,3.9,0,0,0-.79-0.06V21l1.65,0,1.56,0v0.35a3.89,3.89,0,0,0-.79.06,0.36,0.36,0,0,0-.19.13,1.38,1.38,0,0,0-.08.53q0,0.11,0,1.55v3.66q0,0.57,0,.93,0.62,0,1.23,0a8.1,8.1,0,0,0,2.15-.2,2.58,2.58,0,0,0,.13-0.38l0.22-.9h0.37q-0.12.81-.23,1.91l-0.35.05-0.87,0-3.23,0Q401.56,28.74,401,28.78Z" transform="translate(-1 -0.53)"/><path class="cls-1" d="M132.95,41.78V41.41a2.79,2.79,0,0,0,.54,0,0.47,0.47,0,0,0,.2-0.11,1.75,1.75,0,0,0,.26-0.44l0.71-1.53L136,36.21q0.22-.51,1-2.26h0.35l2.33,5.47q0.57,1.33.75,1.67a0.56,0.56,0,0,0,.23.25,1.59,1.59,0,0,0,.55.07v0.37q-0.85-.05-1.19-0.05l-1.76.05V41.41a5.86,5.86,0,0,0,.74,0,0.32,0.32,0,0,0,.18-0.08,0.18,0.18,0,0,0,0-.13,0.88,0.88,0,0,0-.08-0.31l-0.67-1.67H135.3l-0.59,1.4a1.63,1.63,0,0,0-.16.55,0.18,0.18,0,0,0,0,.13,0.32,0.32,0,0,0,.19.1,4,4,0,0,0,.71,0v0.37q-0.92,0-1.38,0T132.95,41.78Zm2.54-3.06h2.75l-1.36-3.28Z" transform="translate(-1 -0.53)"/><path class="cls-1" d="M141.77,41.78V41.43a2.3,2.3,0,0,0,.76-0.09,0.21,0.21,0,0,0,.11-0.1,1.92,1.92,0,0,0,.08-0.57q0-.72,0-1.24V35a0.45,0.45,0,0,0-.22-0.47,0.46,0.46,0,0,0-.23-0.11,4.23,4.23,0,0,0-.57,0V34l1.18,0,0.82,0,0.67,0.89,1.11,1.39,1.63,2q0.78,0.95,1.25,1.49,0.3,0.36.51,0.57v-4q0-.53,0-1.25a2.08,2.08,0,0,0-.07-0.56,0.23,0.23,0,0,0-.11-0.1,2.38,2.38,0,0,0-.75-0.08V34l1.3,0,1.13,0v0.35a2.4,2.4,0,0,0-.75.08,0.2,0.2,0,0,0-.11.11,1.86,1.86,0,0,0-.08.57q0,0.72,0,1.24V39q0,0.79,0,3l-0.56-.16-0.13,0-0.06,0-0.21-.22-0.67-.78-0.7-.9-3.86-4.67V39.4q0,0.54,0,1.27a2,2,0,0,0,.07.56,0.22,0.22,0,0,0,.11.11,2.33,2.33,0,0,0,.75.08v0.35q-0.48,0-1.06,0T141.77,41.78Z" transform="translate(-1 -0.53)"/><path class="cls-1" d="M151.27,41.78V41.52c0.21-.12.38-0.23,0.52-0.33s0-.59.05-1q0-1.12,0-1.56V36.38q0-.53,0-1.25a1.86,1.86,0,0,0-.08-0.56,0.23,0.23,0,0,0-.11-0.1,2.41,2.41,0,0,0-.75-0.08V34l1.41,0,1.28,0,1.26,0a5.65,5.65,0,0,1,2.15.34,3.2,3.2,0,0,1,1.38,1.14,3.3,3.3,0,0,1,.57,2,4.45,4.45,0,0,1-.27,1.55,4.18,4.18,0,0,1-.72,1.27,4,4,0,0,1-1,.86,4.41,4.41,0,0,1-1.1.48,6.14,6.14,0,0,1-1.58.16l-0.9,0-1,0Zm1.68-.59a7.49,7.49,0,0,0,1.26.1,5.49,5.49,0,0,0,1.21-.12,3.18,3.18,0,0,0,.9-0.34,2.76,2.76,0,0,0,.72-0.64,3,3,0,0,0,.54-1.09,5,5,0,0,0,.19-1.37,3.86,3.86,0,0,0-.36-1.74,2.49,2.49,0,0,0-1.09-1.11,4.33,4.33,0,0,0-2-.39,9.16,9.16,0,0,0-1.36.1c0,0.18,0,.49,0,0.95l0,0.79V38.5l0,1.69Q152.93,40.58,153,41.18Z" transform="translate(-1 -0.53)"/><path class="cls-1" d="M162.42,34.39V34l1.1,0,1,0q0.48,1.09.88,1.91l2.07,4.25,1.86-3.9q0.76-1.59,1-2.26l1,0,1.18,0v0.35a3.91,3.91,0,0,0-.79.06,0.37,0.37,0,0,0-.19.13,1.26,1.26,0,0,0-.08.53q0,0.11,0,1.55v2.52q0,0.74,0,1.44a1.74,1.74,0,0,0,.08.62,0.36,0.36,0,0,0,.2.14,3.85,3.85,0,0,0,.78.06v0.35l-1.55,0-1.61,0V41.43a3.93,3.93,0,0,0,.79-0.06,0.33,0.33,0,0,0,.19-0.13,1.25,1.25,0,0,0,.08-0.53q0-.11,0-1.55v-4l-1.88,3.93q-0.44.92-.69,1.48-0.18.41-.54,1.3H167.1a3.17,3.17,0,0,0-.13-0.33l-0.37-.79L164,35.35v3.82q0,0.74,0,1.44a1.75,1.75,0,0,0,.08.62,0.36,0.36,0,0,0,.2.14,3.89,3.89,0,0,0,.79.06v0.35l-1.31,0-1.36,0V41.43a3.85,3.85,0,0,0,.78-0.06,0.35,0.35,0,0,0,.2-0.13,1.39,1.39,0,0,0,.08-0.53q0-.11,0-1.55V36.65q0-.74,0-1.45a1.71,1.71,0,0,0-.08-0.61,0.37,0.37,0,0,0-.2-0.14A3.91,3.91,0,0,0,162.42,34.39Z" transform="translate(-1 -0.53)"/><path class="cls-1" d="M173,41.78V41.41a2.79,2.79,0,0,0,.54,0,0.47,0.47,0,0,0,.2-0.11,1.75,1.75,0,0,0,.26-0.44l0.71-1.53,1.36-3.07q0.22-.51,1-2.26h0.35l2.33,5.47q0.57,1.33.75,1.67a0.56,0.56,0,0,0,.23.25,1.59,1.59,0,0,0,.55.07v0.37q-0.85-.05-1.19-0.05l-1.76.05V41.41a5.86,5.86,0,0,0,.74,0,0.32,0.32,0,0,0,.18-0.08,0.18,0.18,0,0,0,0-.13,0.88,0.88,0,0,0-.08-0.31l-0.67-1.67h-3.16l-0.59,1.4a1.63,1.63,0,0,0-.16.55,0.18,0.18,0,0,0,0,.13,0.32,0.32,0,0,0,.19.1,4,4,0,0,0,.71,0v0.37q-0.92,0-1.38,0T173,41.78Zm2.54-3.06h2.75L177,35.44Z" transform="translate(-1 -0.53)"/><path class="cls-1" d="M181.87,41.51a12.67,12.67,0,0,0,.1-1.69h0.37a4,4,0,0,0,.09.94,0.82,0.82,0,0,0,.3.31,2.5,2.5,0,0,0,.64.29,2.56,2.56,0,0,0,.78.13,2.07,2.07,0,0,0,1-.25,1.59,1.59,0,0,0,.68-0.67,1.9,1.9,0,0,0,.21-0.88,1.64,1.64,0,0,0-.11-0.62,1,1,0,0,0-.32-0.42,1.34,1.34,0,0,0-.54-0.23l-0.81-.11q-0.6-.08-1-0.17a2.31,2.31,0,0,1-.83-0.41,1.71,1.71,0,0,1-.43-0.62,2,2,0,0,1-.17-0.82,2.35,2.35,0,0,1,.34-1.21,2.24,2.24,0,0,1,1-.88,3.25,3.25,0,0,1,1.43-.32,4.64,4.64,0,0,1,1,.12,4.54,4.54,0,0,1,1,.36,6,6,0,0,0-.11.64q0,0.3,0,.87h-0.37a6.16,6.16,0,0,0,0-.92,1.39,1.39,0,0,0-.37-0.35,2.36,2.36,0,0,0-1.17-.32A1.64,1.64,0,0,0,182.75,36a1.29,1.29,0,0,0,.17.72,1.16,1.16,0,0,0,.61.41,5.63,5.63,0,0,0,1,.2q0.68,0.09,1.23.19a2.1,2.1,0,0,1,.76.36,1.59,1.59,0,0,1,.4.55,1.88,1.88,0,0,1,.16.8,2.47,2.47,0,0,1-.9,1.89,3.35,3.35,0,0,1-2.33.81A4.42,4.42,0,0,1,181.87,41.51Z" transform="translate(-1 -0.53)"/><path class="cls-1" d="M187.71,41.51a12.67,12.67,0,0,0,.1-1.69h0.37a4,4,0,0,0,.09.94,0.82,0.82,0,0,0,.3.31,2.5,2.5,0,0,0,.64.29,2.56,2.56,0,0,0,.78.13,2.07,2.07,0,0,0,1-.25,1.59,1.59,0,0,0,.68-0.67,1.9,1.9,0,0,0,.21-0.88,1.64,1.64,0,0,0-.11-0.62,1,1,0,0,0-.32-0.42,1.34,1.34,0,0,0-.54-0.23l-0.81-.11q-0.6-.08-1-0.17a2.31,2.31,0,0,1-.83-0.41,1.71,1.71,0,0,1-.43-0.62,2,2,0,0,1-.17-0.82,2.35,2.35,0,0,1,.34-1.21,2.24,2.24,0,0,1,1-.88,3.25,3.25,0,0,1,1.43-.32,4.64,4.64,0,0,1,1,.12,4.54,4.54,0,0,1,1,.36,6,6,0,0,0-.11.64q0,0.3,0,.87h-0.37a6.16,6.16,0,0,0,0-.92,1.39,1.39,0,0,0-.37-0.35,2.36,2.36,0,0,0-1.17-.32A1.64,1.64,0,0,0,188.6,36a1.29,1.29,0,0,0,.17.72,1.16,1.16,0,0,0,.61.41,5.63,5.63,0,0,0,1,.2q0.68,0.09,1.23.19a2.1,2.1,0,0,1,.76.36,1.59,1.59,0,0,1,.4.55,1.88,1.88,0,0,1,.16.8,2.47,2.47,0,0,1-.9,1.89,3.35,3.35,0,0,1-2.33.81A4.42,4.42,0,0,1,187.71,41.51Z" transform="translate(-1 -0.53)"/><path class="cls-1" d="M193,41.78V41.41a2.79,2.79,0,0,0,.54,0,0.47,0.47,0,0,0,.2-0.11,1.75,1.75,0,0,0,.26-0.44l0.71-1.53L196,36.21q0.22-.51,1-2.26h0.35l2.33,5.47q0.57,1.33.75,1.67a0.56,0.56,0,0,0,.23.25,1.59,1.59,0,0,0,.55.07v0.37q-0.85-.05-1.19-0.05l-1.76.05V41.41a5.86,5.86,0,0,0,.74,0,0.32,0.32,0,0,0,.18-0.08,0.18,0.18,0,0,0,0-.13,0.88,0.88,0,0,0-.08-0.31l-0.67-1.67h-3.16l-0.59,1.4a1.63,1.63,0,0,0-.16.55,0.18,0.18,0,0,0,0,.13,0.32,0.32,0,0,0,.19.1,4,4,0,0,0,.71,0v0.37q-0.92,0-1.38,0T193,41.78Zm2.54-3.06h2.75l-1.36-3.28Z" transform="translate(-1 -0.53)"/><path class="cls-1" d="M208.28,40.82l-0.21.51a5.68,5.68,0,0,1-1.25.47,5.74,5.74,0,0,1-1.33.14,5.56,5.56,0,0,1-1.57-.21,4.07,4.07,0,0,1-1.27-.61,3.79,3.79,0,0,1-.89-0.89,3.87,3.87,0,0,1-.52-1.07,4.21,4.21,0,0,1-.18-1.26A3.79,3.79,0,0,1,202.28,35a4.63,4.63,0,0,1,3.31-1.14,6.88,6.88,0,0,1,.92.06,8.64,8.64,0,0,1,1,.22l0.74,0.19a3.57,3.57,0,0,0-.18.59A8.15,8.15,0,0,0,208,36h-0.34V35.36a1,1,0,0,0-.59-0.79,3.7,3.7,0,0,0-1.57-.26,4.2,4.2,0,0,0-1.31.2,2.53,2.53,0,0,0-1,.59,3.12,3.12,0,0,0-.67,1,4.13,4.13,0,0,0-.27,1.57,3.46,3.46,0,0,0,3.67,3.66,4.5,4.5,0,0,0,1.38-.21,3.23,3.23,0,0,0,.87-0.44Z" transform="translate(-1 -0.53)"/><path class="cls-1" d="M208.87,34.39V34l1.67,0,1.54,0v0.35a3.89,3.89,0,0,0-.78.06,0.36,0.36,0,0,0-.19.13,1.4,1.4,0,0,0-.08.53q0,0.11,0,1.55v0.76q1.07,0,2.62,0,1.18,0,1.89,0V36.65q0-.74,0-1.45a1.74,1.74,0,0,0-.08-0.61,0.37,0.37,0,0,0-.2-0.14,3.87,3.87,0,0,0-.78-0.06V34l1.61,0,1.59,0v0.35a3.88,3.88,0,0,0-.78.06,0.34,0.34,0,0,0-.19.13,1.31,1.31,0,0,0-.09.53q0,0.11,0,1.55v2.52q0,0.74,0,1.44a1.74,1.74,0,0,0,.07.62,0.36,0.36,0,0,0,.2.14,3.85,3.85,0,0,0,.78.06v0.35l-1.72,0q-0.71,0-1.48,0V41.43a3.88,3.88,0,0,0,.79-0.06,0.36,0.36,0,0,0,.19-0.13,1.25,1.25,0,0,0,.08-0.53q0-.11,0-1.54V37.94l-2.32,0-2.19,0v1.24q0,0.74,0,1.44a1.72,1.72,0,0,0,.08.61,0.36,0.36,0,0,0,.2.14,3.89,3.89,0,0,0,.79.06v0.35q-0.74,0-1.52,0t-1.69,0V41.43a3.85,3.85,0,0,0,.78-0.06,0.36,0.36,0,0,0,.2-0.13,1.38,1.38,0,0,0,.08-0.53q0-.11,0-1.55V36.65q0-.74,0-1.45a1.76,1.76,0,0,0-.08-0.61,0.37,0.37,0,0,0-.2-0.14A3.92,3.92,0,0,0,208.87,34.39Z" transform="translate(-1 -0.53)"/><path class="cls-1" d="M218.13,34.39V34q0.89,0,1.65,0t1.54,0v0.35a3.89,3.89,0,0,0-.78.06,0.33,0.33,0,0,0-.19.13,1.29,1.29,0,0,0-.09.53q0,0.11,0,1.55v2a5,5,0,0,0,.15,1.54,1.43,1.43,0,0,0,.48.62,2,2,0,0,0,.68.3,3.7,3.7,0,0,0,.95.11,3.58,3.58,0,0,0,1.08-.15,1.91,1.91,0,0,0,.71-0.36,1.44,1.44,0,0,0,.35-0.48,2.64,2.64,0,0,0,.17-0.73,11.11,11.11,0,0,0,.05-1.18V36.65q0-.74,0-1.45a1.72,1.72,0,0,0-.07-0.61,0.37,0.37,0,0,0-.2-0.14,3.88,3.88,0,0,0-.78-0.06V34l1.31,0,1.35,0v0.35a3.87,3.87,0,0,0-.78.06,0.36,0.36,0,0,0-.19.13,1.4,1.4,0,0,0-.08.53q0,0.11,0,1.55v1.82a6.43,6.43,0,0,1-.19,1.88,2.13,2.13,0,0,1-.69.94,2.69,2.69,0,0,1-1,.47,5.3,5.3,0,0,1-2.77,0,2.28,2.28,0,0,1-.94-0.52,1.8,1.8,0,0,1-.44-0.66,5.11,5.11,0,0,1-.15-1.5V36.65q0-.74,0-1.45a1.75,1.75,0,0,0-.08-0.61,0.37,0.37,0,0,0-.2-0.14A3.92,3.92,0,0,0,218.13,34.39Z" transform="translate(-1 -0.53)"/><path class="cls-1" d="M226.76,41.51a12.67,12.67,0,0,0,.1-1.69h0.37a4,4,0,0,0,.09.94,0.82,0.82,0,0,0,.3.31,2.5,2.5,0,0,0,.64.29,2.56,2.56,0,0,0,.78.13,2.07,2.07,0,0,0,1-.25,1.59,1.59,0,0,0,.68-0.67,1.89,1.89,0,0,0,.21-0.88,1.63,1.63,0,0,0-.11-0.62,1,1,0,0,0-.32-0.42,1.34,1.34,0,0,0-.54-0.23l-0.81-.11q-0.6-.08-1-0.17a2.3,2.3,0,0,1-.83-0.41,1.7,1.7,0,0,1-.43-0.62,2,2,0,0,1-.17-0.82,2.34,2.34,0,0,1,.33-1.21,2.24,2.24,0,0,1,1-.88,3.25,3.25,0,0,1,1.42-.32,4.64,4.64,0,0,1,1,.12,4.55,4.55,0,0,1,1,.36,5.72,5.72,0,0,0-.11.64q0,0.3,0,.87H231a5.93,5.93,0,0,0,0-.92,1.39,1.39,0,0,0-.37-0.35,2.36,2.36,0,0,0-1.17-.32A1.64,1.64,0,0,0,227.64,36a1.29,1.29,0,0,0,.17.72,1.16,1.16,0,0,0,.61.41,5.64,5.64,0,0,0,1,.2q0.68,0.09,1.23.19a2.1,2.1,0,0,1,.76.36,1.58,1.58,0,0,1,.4.55,1.88,1.88,0,0,1,.16.8,2.47,2.47,0,0,1-.9,1.89,3.35,3.35,0,0,1-2.33.81A4.42,4.42,0,0,1,226.76,41.51Z" transform="translate(-1 -0.53)"/><path class="cls-1" d="M232.43,41.78V41.43a2.27,2.27,0,0,0,.75-0.09,0.21,0.21,0,0,0,.11-0.1,1.94,1.94,0,0,0,.08-0.57q0-.72,0-1.24V36.65q0-.74,0-1.45a1.75,1.75,0,0,0-.08-0.61,0.37,0.37,0,0,0-.2-0.14,3.92,3.92,0,0,0-.79-0.06V34l1.55,0,1.65,0,1.72,0a8.2,8.2,0,0,1,1,.06,4.51,4.51,0,0,0-.12.54s0,0.41-.1,1.13h-0.34a5.84,5.84,0,0,0-.07-1,2.51,2.51,0,0,0-.66-0.17,9.84,9.84,0,0,0-1.22-.08l-0.58,0-0.65,0c0,0.4,0,.78,0,1.13l0,1.84q0.64,0,1.17,0a8.69,8.69,0,0,0,1.11-.06,0.33,0.33,0,0,0,.22-0.09A1.31,1.31,0,0,0,237,37l0-.38h0.33v0.1l0,1.13,0,1.27H237l0-.37a1.27,1.27,0,0,0-.07-0.5,0.36,0.36,0,0,0-.24-0.14,7.06,7.06,0,0,0-1.21-.07l-1,0q0,0.54,0,1.62t0,1.53q0.78,0.06,1.76.06a7.59,7.59,0,0,0,1,0,2.31,2.31,0,0,0,.54-0.15,3.35,3.35,0,0,0,.13-0.46C238,40.29,238,40,238,39.88h0.37a15,15,0,0,0-.14,1.83,7.67,7.67,0,0,1-1.14.07l-3.25,0Z" transform="translate(-1 -0.53)"/><path class="cls-1" d="M239.36,35.84H239q0-1.3-.05-1.8l1.86,0.05,1.37,0,1.72,0,1.42,0q-0.07.61-.09,1.8h-0.35l0-.52c0-.32,0-0.5-0.06-0.54a0.19,0.19,0,0,0,0-.09l-0.09,0-0.54,0-0.74,0h-0.67q-0.05.52-.05,1.41v3.19q0,0.74,0,1.44a1.73,1.73,0,0,0,.08.62,0.36,0.36,0,0,0,.2.14,3.88,3.88,0,0,0,.79.06v0.35l-1.47,0-1.7,0V41.43a3.89,3.89,0,0,0,.79-0.06,0.32,0.32,0,0,0,.19-0.13,1.29,1.29,0,0,0,.09-0.53q0-.11,0-1.55V36c0-.15,0-0.32,0-0.5l0-.92h-0.81a9.06,9.06,0,0,0-1.12.05,0.24,0.24,0,0,0-.17.07,1.94,1.94,0,0,0-.11.59Z" transform="translate(-1 -0.53)"/><path class="cls-1" d="M245.91,41.51a12.67,12.67,0,0,0,.1-1.69h0.37a4,4,0,0,0,.09.94,0.82,0.82,0,0,0,.3.31,2.5,2.5,0,0,0,.64.29,2.56,2.56,0,0,0,.78.13,2.07,2.07,0,0,0,1-.25,1.59,1.59,0,0,0,.68-0.67,1.89,1.89,0,0,0,.21-0.88,1.63,1.63,0,0,0-.11-0.62,1,1,0,0,0-.32-0.42,1.34,1.34,0,0,0-.54-0.23l-0.81-.11q-0.6-.08-1-0.17a2.3,2.3,0,0,1-.83-0.41,1.7,1.7,0,0,1-.43-0.62,2,2,0,0,1-.17-0.82,2.34,2.34,0,0,1,.33-1.21,2.24,2.24,0,0,1,1-.88,3.25,3.25,0,0,1,1.42-.32,4.64,4.64,0,0,1,1,.12,4.55,4.55,0,0,1,1,.36,5.72,5.72,0,0,0-.11.64q0,0.3,0,.87h-0.37a5.93,5.93,0,0,0,0-.92,1.39,1.39,0,0,0-.37-0.35,2.36,2.36,0,0,0-1.17-.32A1.64,1.64,0,0,0,246.79,36a1.29,1.29,0,0,0,.17.72,1.16,1.16,0,0,0,.61.41,5.64,5.64,0,0,0,1,.2q0.68,0.09,1.23.19a2.1,2.1,0,0,1,.76.36,1.58,1.58,0,0,1,.4.55,1.88,1.88,0,0,1,.16.8,2.47,2.47,0,0,1-.9,1.89,3.35,3.35,0,0,1-2.33.81A4.42,4.42,0,0,1,245.91,41.51Z" transform="translate(-1 -0.53)"/><path class="cls-1" d="M262,41.35a9.77,9.77,0,0,1-1.36.4,9.4,9.4,0,0,1-1.77.18,4.92,4.92,0,0,1-2.24-.49,3.62,3.62,0,0,1-1.52-1.38,4,4,0,0,1-.53-2.1,3.77,3.77,0,0,1,1.34-3,4.34,4.34,0,0,1,1.15-.71,5.9,5.9,0,0,1,2.17-.35,6.77,6.77,0,0,1,1.27.14q0.67,0.13,1.51.37a4.54,4.54,0,0,0-.13.54q0,0.27-.11,1.1h-0.33l0-.62q0-.14,0-0.23a0.62,0.62,0,0,0-.07-0.22,1.29,1.29,0,0,0-.47-0.35,5.79,5.79,0,0,0-.92-0.28,4.5,4.5,0,0,0-.86-0.07,3.5,3.5,0,0,0-1.79.44,2.83,2.83,0,0,0-1.15,1.26,4.15,4.15,0,0,0-.39,1.8,4.06,4.06,0,0,0,.46,1.93A3.27,3.27,0,0,0,257.41,41a3.43,3.43,0,0,0,1.79.46,4.61,4.61,0,0,0,.93-0.09,2.9,2.9,0,0,0,.76-0.26,3.56,3.56,0,0,0,0-.7V39.79a1.71,1.71,0,0,0,0-.56,0.39,0.39,0,0,0-.26-0.12,8.28,8.28,0,0,0-1-.06V38.71l1.7,0q0.5,0,1,0l0,0.26-0.41.24a9.62,9.62,0,0,0-.07,1.07A9.34,9.34,0,0,0,262,41.35Z" transform="translate(-1 -0.53)"/><path class="cls-1" d="M262.91,41.78V41.43a2.27,2.27,0,0,0,.75-0.09,0.21,0.21,0,0,0,.11-0.1,1.94,1.94,0,0,0,.08-0.57q0-.72,0-1.24V36.65q0-.74,0-1.45a1.75,1.75,0,0,0-.08-0.61,0.37,0.37,0,0,0-.2-0.14,3.92,3.92,0,0,0-.79-0.06V34l1.55,0L266,34l1.72,0a8.2,8.2,0,0,1,1,.06,4.51,4.51,0,0,0-.12.54s0,0.41-.1,1.13h-0.34a5.84,5.84,0,0,0-.07-1,2.51,2.51,0,0,0-.66-0.17,9.84,9.84,0,0,0-1.22-.08l-0.58,0-0.65,0c0,0.4,0,.78,0,1.13l0,1.84q0.64,0,1.17,0a8.69,8.69,0,0,0,1.11-.06,0.33,0.33,0,0,0,.22-0.09,1.31,1.31,0,0,0,.09-0.45l0-.38h0.33v0.1l0,1.13,0,1.27H267.5l0-.37a1.27,1.27,0,0,0-.07-0.5,0.36,0.36,0,0,0-.24-0.14A7.06,7.06,0,0,0,266,38l-1,0q0,0.54,0,1.62t0,1.53q0.78,0.06,1.76.06a7.59,7.59,0,0,0,1,0,2.31,2.31,0,0,0,.54-0.15,3.35,3.35,0,0,0,.13-0.46c0.08-.32.13-0.57,0.16-0.73h0.37a15,15,0,0,0-.14,1.83,7.67,7.67,0,0,1-1.14.07l-3.25,0Z" transform="translate(-1 -0.53)"/><path class="cls-1" d="M269.51,41.78V41.43a2.3,2.3,0,0,0,.76-0.09,0.21,0.21,0,0,0,.11-0.1,1.88,1.88,0,0,0,.08-0.57q0-.72,0-1.24V35a0.77,0.77,0,0,0,0-.23,0.74,0.74,0,0,0-.2-0.23,0.46,0.46,0,0,0-.23-0.11,4.23,4.23,0,0,0-.57,0V34l1.18,0,0.82,0,0.67,0.89,1.11,1.39,1.63,2q0.78,0.95,1.25,1.49,0.3,0.36.51,0.57v-4q0-.53,0-1.25a2.11,2.11,0,0,0-.07-0.56,0.23,0.23,0,0,0-.12-0.1,2.37,2.37,0,0,0-.75-0.08V34l1.3,0,1.13,0v0.35a2.4,2.4,0,0,0-.75.08,0.2,0.2,0,0,0-.11.11,1.85,1.85,0,0,0-.08.57q0,0.72,0,1.24V39q0,0.79,0,3l-0.56-.16-0.13,0-0.06,0-0.21-.22-0.67-.78-0.7-.9L271,35.18V39.4q0,0.54,0,1.27a2,2,0,0,0,.07.56,0.22,0.22,0,0,0,.11.11,2.34,2.34,0,0,0,.75.08v0.35q-0.48,0-1.06,0T269.51,41.78Z" transform="translate(-1 -0.53)"/><path class="cls-1" d="M278.84,41.78V41.43a2.27,2.27,0,0,0,.75-0.09,0.21,0.21,0,0,0,.11-0.1,1.94,1.94,0,0,0,.08-0.57q0-.72,0-1.24V36.65q0-.74,0-1.45a1.75,1.75,0,0,0-.08-0.61,0.37,0.37,0,0,0-.2-0.14,3.92,3.92,0,0,0-.79-0.06V34l1.55,0,1.65,0,1.72,0a8.2,8.2,0,0,1,1,.06,4.51,4.51,0,0,0-.12.54s0,0.41-.1,1.13H284.1a5.84,5.84,0,0,0-.07-1,2.51,2.51,0,0,0-.66-0.17,9.84,9.84,0,0,0-1.22-.08l-0.58,0-0.65,0c0,0.4,0,.78,0,1.13l0,1.84q0.64,0,1.17,0a8.69,8.69,0,0,0,1.11-.06,0.33,0.33,0,0,0,.22-0.09,1.31,1.31,0,0,0,.09-0.45l0-.38h0.33v0.1l0,1.13,0,1.27h-0.38l0-.37a1.27,1.27,0,0,0-.07-0.5,0.36,0.36,0,0,0-.24-0.14A7.06,7.06,0,0,0,281.9,38l-1,0q0,0.54,0,1.62t0,1.53q0.78,0.06,1.76.06a7.59,7.59,0,0,0,1,0,2.31,2.31,0,0,0,.54-0.15,3.35,3.35,0,0,0,.13-0.46c0.08-.32.13-0.57,0.16-0.73h0.37a15,15,0,0,0-.14,1.83,7.67,7.67,0,0,1-1.14.07l-3.25,0Z" transform="translate(-1 -0.53)"/><path class="cls-1" d="M285.4,34.39V34H286l1,0,1,0,1,0a4.54,4.54,0,0,1,1.52.19,1.47,1.47,0,0,1,.74.6,1.67,1.67,0,0,1,.26.91,1.88,1.88,0,0,1-.25.91,2.05,2.05,0,0,1-.71.75,3.73,3.73,0,0,1-1.21.46L290,38.7l1.38,1.81q0.59,0.76.69,0.84l0.1,0.05a1.42,1.42,0,0,0,.36,0v0.35q-0.41,0-.72,0t-0.79,0q-0.35-.41-1.19-1.59-0.46-.66-0.82-1.1-0.57-.73-1.09-1.32L288,37.6l0.43,0a2.15,2.15,0,0,0,1.5-.47,1.6,1.6,0,0,0,.51-1.24,1.36,1.36,0,0,0-.44-1.07,2,2,0,0,0-1.34-.4,3.67,3.67,0,0,0-1.1.17c0,0.2,0,.38,0,0.55s0,0.58,0,1.58v2.42q0,0.74,0,1.44a1.71,1.71,0,0,0,.07.62,0.36,0.36,0,0,0,.2.14,3.87,3.87,0,0,0,.78.06v0.35q-0.77,0-1.42,0l-1.76,0V41.43a3.86,3.86,0,0,0,.78-0.06,0.36,0.36,0,0,0,.2-0.13,1.4,1.4,0,0,0,.08-0.53q0-.11,0-1.55V36.65q0-.74,0-1.45a1.71,1.71,0,0,0-.08-0.61,0.37,0.37,0,0,0-.2-0.14A3.92,3.92,0,0,0,285.4,34.39Z" transform="translate(-1 -0.53)"/><path class="cls-1" d="M293,41.78V41.41a2.78,2.78,0,0,0,.54,0,0.47,0.47,0,0,0,.2-0.11,1.76,1.76,0,0,0,.26-0.44l0.71-1.53L296,36.21q0.22-.51,1-2.26h0.35l2.33,5.47q0.57,1.33.75,1.67a0.56,0.56,0,0,0,.23.25,1.59,1.59,0,0,0,.55.07v0.37q-0.85-.05-1.19-0.05l-1.76.05V41.41a5.89,5.89,0,0,0,.74,0,0.32,0.32,0,0,0,.18-0.08,0.18,0.18,0,0,0,0-.13,0.89,0.89,0,0,0-.08-0.31l-0.67-1.67h-3.16l-0.59,1.4a1.64,1.64,0,0,0-.16.55,0.18,0.18,0,0,0,0,.13,0.33,0.33,0,0,0,.19.1,4,4,0,0,0,.71,0v0.37q-0.92,0-1.38,0T293,41.78Zm2.54-3.06h2.75l-1.36-3.28Z" transform="translate(-1 -0.53)"/><path class="cls-1" d="M302,41.78V41.5a1.76,1.76,0,0,0,.43-0.25,0.26,0.26,0,0,0,.08-0.12,3,3,0,0,0,.06-0.65q0-.75,0-0.89V36.65q0-.74,0-1.45a1.76,1.76,0,0,0-.08-0.61,0.37,0.37,0,0,0-.2-0.14,3.92,3.92,0,0,0-.79-0.06V34l1.65,0,1.56,0v0.35a3.91,3.91,0,0,0-.79.06,0.36,0.36,0,0,0-.19.13,1.38,1.38,0,0,0-.08.53q0,0.11,0,1.55v3.66q0,0.57,0,.93,0.62,0,1.23,0a8.1,8.1,0,0,0,2.15-.2,2.58,2.58,0,0,0,.13-0.38l0.22-.9h0.37q-0.12.81-.23,1.91l-0.35.05-0.87,0-3.23,0Q302.52,41.74,302,41.78Z" transform="translate(-1 -0.53)"/><path class="cls-1" d="M311.17,34.39V34l1.67,0,1.54,0v0.35a3.89,3.89,0,0,0-.78.06,0.36,0.36,0,0,0-.19.13,1.4,1.4,0,0,0-.08.53q0,0.11,0,1.55v0.76q1.07,0,2.62,0,1.18,0,1.89,0V36.65q0-.74,0-1.45a1.74,1.74,0,0,0-.08-0.61,0.37,0.37,0,0,0-.2-0.14,3.87,3.87,0,0,0-.78-0.06V34l1.61,0,1.59,0v0.35a3.88,3.88,0,0,0-.78.06,0.34,0.34,0,0,0-.19.13,1.31,1.31,0,0,0-.09.53q0,0.11,0,1.55v2.52q0,0.74,0,1.44a1.74,1.74,0,0,0,.07.62,0.36,0.36,0,0,0,.2.14,3.85,3.85,0,0,0,.78.06v0.35l-1.72,0q-0.71,0-1.48,0V41.43a3.88,3.88,0,0,0,.79-0.06,0.36,0.36,0,0,0,.19-0.13,1.25,1.25,0,0,0,.08-0.53q0-.11,0-1.54V37.94l-2.32,0-2.19,0v1.24q0,0.74,0,1.44a1.72,1.72,0,0,0,.08.61,0.36,0.36,0,0,0,.2.14,3.89,3.89,0,0,0,.79.06v0.35q-0.74,0-1.52,0t-1.69,0V41.43a3.85,3.85,0,0,0,.78-0.06,0.36,0.36,0,0,0,.2-0.13,1.38,1.38,0,0,0,.08-0.53q0-.11,0-1.55V36.65q0-.74,0-1.45a1.76,1.76,0,0,0-.08-0.61,0.37,0.37,0,0,0-.2-0.14A3.92,3.92,0,0,0,311.17,34.39Z" transform="translate(-1 -0.53)"/><path class="cls-1" d="M320.2,38a4.73,4.73,0,0,1,.26-1.59,3.4,3.4,0,0,1,.86-1.31,4.05,4.05,0,0,1,1.36-.88,4.74,4.74,0,0,1,1.73-.3,5,5,0,0,1,1.63.25,3.55,3.55,0,0,1,1.21.67,3.43,3.43,0,0,1,.74.91,3.47,3.47,0,0,1,.33.87,4.5,4.5,0,0,1,.12,1.07,4.13,4.13,0,0,1-1.23,3.06,4.25,4.25,0,0,1-3.12,1.22,4.51,4.51,0,0,1-1.6-.28,3.26,3.26,0,0,1-1.25-.83,3.63,3.63,0,0,1-.78-1.33A4.77,4.77,0,0,1,320.2,38Zm1.13-.45a5.5,5.5,0,0,0,.1,1.05,4.87,4.87,0,0,0,.26.92,3.4,3.4,0,0,0,.68,1.1,2.66,2.66,0,0,0,.94.65,3.06,3.06,0,0,0,1.15.21A2.71,2.71,0,0,0,326,41a2.57,2.57,0,0,0,1-1.21,4.68,4.68,0,0,0,.32-1.79,5.33,5.33,0,0,0-.23-1.6,3.36,3.36,0,0,0-.38-0.81,2.79,2.79,0,0,0-.56-0.63,2.76,2.76,0,0,0-.84-0.46,3.3,3.3,0,0,0-1.12-.18,2.93,2.93,0,0,0-1.52.39,2.41,2.41,0,0,0-1,1.12A4,4,0,0,0,321.33,37.5Z" transform="translate(-1 -0.53)"/><path class="cls-1" d="M329.07,41.51a12.67,12.67,0,0,0,.1-1.69h0.37a4,4,0,0,0,.09.94,0.82,0.82,0,0,0,.3.31,2.5,2.5,0,0,0,.64.29,2.56,2.56,0,0,0,.78.13,2.07,2.07,0,0,0,1-.25,1.59,1.59,0,0,0,.68-0.67,1.89,1.89,0,0,0,.21-0.88,1.63,1.63,0,0,0-.11-0.62,1,1,0,0,0-.32-0.42,1.34,1.34,0,0,0-.54-0.23l-0.81-.11q-0.6-.08-1-0.17a2.3,2.3,0,0,1-.83-0.41,1.7,1.7,0,0,1-.43-0.62,2,2,0,0,1-.17-0.82,2.34,2.34,0,0,1,.33-1.21,2.24,2.24,0,0,1,1-.88,3.25,3.25,0,0,1,1.42-.32,4.64,4.64,0,0,1,1,.12,4.55,4.55,0,0,1,1,.36,5.72,5.72,0,0,0-.11.64q0,0.3,0,.87h-0.37a5.93,5.93,0,0,0,0-.92,1.39,1.39,0,0,0-.37-0.35,2.36,2.36,0,0,0-1.17-.32A1.64,1.64,0,0,0,330,36a1.29,1.29,0,0,0,.17.72,1.16,1.16,0,0,0,.61.41,5.64,5.64,0,0,0,1,.2q0.68,0.09,1.23.19a2.1,2.1,0,0,1,.76.36,1.58,1.58,0,0,1,.4.55,1.88,1.88,0,0,1,.16.8,2.47,2.47,0,0,1-.9,1.89,3.35,3.35,0,0,1-2.33.81A4.42,4.42,0,0,1,329.07,41.51Z" transform="translate(-1 -0.53)"/><path class="cls-1" d="M334.64,34.39V34l1.73,0h0.91l0.86,0h0.26a3.92,3.92,0,0,1,1.36.19,1.59,1.59,0,0,1,.77.61,1.68,1.68,0,0,1,.28,1,2.16,2.16,0,0,1-.23,1,2.2,2.2,0,0,1-.67.8A2.89,2.89,0,0,1,339,38a2.57,2.57,0,0,1-.74.1A4.06,4.06,0,0,1,337.5,38l-0.11-.4a3.55,3.55,0,0,0,.76.11,1.61,1.61,0,0,0,.78-0.2,1.37,1.37,0,0,0,.57-0.6,1.93,1.93,0,0,0,.2-0.89,1.8,1.8,0,0,0-.2-0.85,1.3,1.3,0,0,0-.6-0.58,2.25,2.25,0,0,0-1-.2,3.76,3.76,0,0,0-1.11.18q0,0.58,0,1.81v2.75q0,0.74,0,1.44a1.73,1.73,0,0,0,.08.62,0.36,0.36,0,0,0,.2.14,3.89,3.89,0,0,0,.79.06v0.35l-1.48,0-1.71,0V41.43a3.86,3.86,0,0,0,.78-0.06,0.36,0.36,0,0,0,.2-0.13,1.4,1.4,0,0,0,.08-0.53q0-.11,0-1.55V36.65q0-.74,0-1.45a1.75,1.75,0,0,0-.08-0.61,0.37,0.37,0,0,0-.2-0.14A3.92,3.92,0,0,0,334.64,34.39Z" transform="translate(-1 -0.53)"/><path class="cls-1" d="M344.32,41.43v0.35l-1.52,0-1.68,0V41.43a3.86,3.86,0,0,0,.78-0.06,0.36,0.36,0,0,0,.2-0.13,1.4,1.4,0,0,0,.08-0.53q0-.11,0-1.55V36.65q0-.74,0-1.45a1.71,1.71,0,0,0-.08-0.61,0.37,0.37,0,0,0-.2-0.14,3.92,3.92,0,0,0-.79-0.06V34l1.61,0,1.6,0v0.35a3.88,3.88,0,0,0-.78.06,0.36,0.36,0,0,0-.19.13,1.39,1.39,0,0,0-.08.53q0,0.11,0,1.55v2.52q0,0.74,0,1.44a1.78,1.78,0,0,0,.08.62,0.36,0.36,0,0,0,.2.14A3.89,3.89,0,0,0,344.32,41.43Z" transform="translate(-1 -0.53)"/><path class="cls-1" d="M345.29,35.84h-0.34q0-1.3-.05-1.8l1.86,0.05,1.37,0,1.72,0,1.42,0q-0.07.61-.09,1.8h-0.35l0-.52c0-.32,0-0.5-0.06-0.54a0.19,0.19,0,0,0,0-.09l-0.09,0-0.54,0-0.74,0h-0.67q-0.05.52-.05,1.41v3.19q0,0.74,0,1.44a1.73,1.73,0,0,0,.08.62,0.36,0.36,0,0,0,.2.14,3.88,3.88,0,0,0,.79.06v0.35l-1.47,0-1.7,0V41.43a3.89,3.89,0,0,0,.79-0.06,0.32,0.32,0,0,0,.19-0.13,1.29,1.29,0,0,0,.09-0.53q0-.11,0-1.55V36c0-.15,0-0.32,0-0.5l0-.92h-0.81a9.06,9.06,0,0,0-1.12.05,0.24,0.24,0,0,0-.17.07,1.94,1.94,0,0,0-.11.59Z" transform="translate(-1 -0.53)"/><path class="cls-1" d="M351,41.78V41.41a2.78,2.78,0,0,0,.54,0,0.47,0.47,0,0,0,.2-0.11,1.76,1.76,0,0,0,.26-0.44l0.71-1.53,1.36-3.07q0.22-.51,1-2.26h0.35l2.33,5.47q0.57,1.33.75,1.67a0.56,0.56,0,0,0,.23.25,1.59,1.59,0,0,0,.55.07v0.37q-0.85-.05-1.19-0.05l-1.76.05V41.41a5.89,5.89,0,0,0,.74,0,0.32,0.32,0,0,0,.18-0.08,0.18,0.18,0,0,0,0-.13,0.89,0.89,0,0,0-.08-0.31l-0.67-1.67h-3.16l-0.59,1.4a1.64,1.64,0,0,0-.16.55,0.18,0.18,0,0,0,0,.13,0.33,0.33,0,0,0,.19.1,4,4,0,0,0,.71,0v0.37q-0.92,0-1.38,0T351,41.78Zm2.54-3.06h2.75l-1.36-3.28Z" transform="translate(-1 -0.53)"/><path class="cls-1" d="M360,41.78V41.5a1.76,1.76,0,0,0,.43-0.25,0.26,0.26,0,0,0,.08-0.12,3,3,0,0,0,.06-0.65q0-.75,0-0.89V36.65q0-.74,0-1.45a1.76,1.76,0,0,0-.08-0.61,0.37,0.37,0,0,0-.2-0.14,3.92,3.92,0,0,0-.79-0.06V34l1.65,0,1.56,0v0.35a3.91,3.91,0,0,0-.79.06,0.36,0.36,0,0,0-.19.13,1.38,1.38,0,0,0-.08.53q0,0.11,0,1.55v3.66q0,0.57,0,.93,0.62,0,1.23,0a8.1,8.1,0,0,0,2.15-.2,2.58,2.58,0,0,0,.13-0.38l0.22-.9h0.37q-0.12.81-.23,1.91l-0.35.05-0.87,0-3.23,0Q360.54,41.74,360,41.78Z" transform="translate(-1 -0.53)"/><path class="cls-1" d="M1,16.81V16.08q2.19,0.08,3.46.08l1.81,0L8,16.07H8.5a7.43,7.43,0,0,1,2.72.4,3.21,3.21,0,0,1,1.55,1.28,3.67,3.67,0,0,1,.55,2,4.74,4.74,0,0,1-.46,2,4.59,4.59,0,0,1-1.34,1.69,5.72,5.72,0,0,1-1.84,1,4.9,4.9,0,0,1-1.48.21,7.68,7.68,0,0,1-1.5-.16l-0.23-.85A6.71,6.71,0,0,0,8,23.87a3.08,3.08,0,0,0,1.55-.42,2.82,2.82,0,0,0,1.14-1.27,4.24,4.24,0,0,0,.41-1.87,4,4,0,0,0-.4-1.79,2.67,2.67,0,0,0-1.21-1.21,4.28,4.28,0,0,0-2-.41,7.12,7.12,0,0,0-2.22.39q-0.1,1.22-.1,3.81v5.78q0,1.56,0,3a3.84,3.84,0,0,0,.16,1.3,0.73,0.73,0,0,0,.4.3,7.33,7.33,0,0,0,1.57.12v0.73q-2-.08-3-0.08L1,32.38V31.64a7.28,7.28,0,0,0,1.56-.12,0.71,0.71,0,0,0,.39-0.27,3.08,3.08,0,0,0,.16-1.11q0-.24.05-3.26V21.57q0-1.56,0-3.05A3.8,3.8,0,0,0,3,17.23a0.74,0.74,0,0,0-.4-0.3A7.37,7.37,0,0,0,1,16.81Z" transform="translate(-1 -0.53)"/><path class="cls-1" d="M11.25,32.38V31.6a5.2,5.2,0,0,0,1-.08,0.9,0.9,0,0,0,.38-0.24,3.74,3.74,0,0,0,.5-0.92q0.19-.42,1.38-3.23l2.65-6.47q0.44-1.07,1.86-4.75h0.68l4.53,11.51q1.1,2.8,1.47,3.51a1.16,1.16,0,0,0,.44.53,2.92,2.92,0,0,0,1.08.14v0.78q-1.66-.11-2.32-0.12l-3.42.12V31.6A10.71,10.71,0,0,0,23,31.52a0.62,0.62,0,0,0,.34-0.17,0.41,0.41,0,0,0,.09-0.27,2,2,0,0,0-.15-0.65L22,26.91H15.82l-1.15,3A3.67,3.67,0,0,0,14.36,31a0.4,0.4,0,0,0,.09.26,0.62,0.62,0,0,0,.36.21,7.32,7.32,0,0,0,1.38.1v0.78q-1.79-.1-2.69-0.1T11.25,32.38Zm4.94-6.44h5.34L18.89,19Z" transform="translate(-1 -0.53)"/><path class="cls-1" d="M26.93,16.81V16.08l1.3,0,2.09,0,1.93,0,2-.06a8.61,8.61,0,0,1,3,.39,3,3,0,0,1,1.47,1.27,3.67,3.67,0,0,1,.52,1.91,4.16,4.16,0,0,1-.49,1.92,4.24,4.24,0,0,1-1.42,1.58,7.17,7.17,0,0,1-2.42,1q0.27,0.4,1.28,1.79l2.74,3.8q1.17,1.6,1.37,1.78a0.66,0.66,0,0,0,.2.12,2.74,2.74,0,0,0,.72.06v0.73q-0.82-.08-1.44-0.08t-1.57.08Q37.5,31.52,35.83,29q-0.93-1.39-1.64-2.32Q33.05,25.17,32,23.92l0.11-.34,0.86,0a4.16,4.16,0,0,0,3-1A3.46,3.46,0,0,0,37,20a2.94,2.94,0,0,0-.88-2.24,3.76,3.76,0,0,0-2.67-.83,7,7,0,0,0-2.2.36q0,0.62-.07,1.16,0,0.16-.08,3.34v5.09q0,1.56.05,3a3.8,3.8,0,0,0,.15,1.3,0.73,0.73,0,0,0,.41.3,7.28,7.28,0,0,0,1.56.12v0.73q-1.55-.08-2.84-0.08-1,0-3.51.08V31.64a7.28,7.28,0,0,0,1.56-.12,0.71,0.71,0,0,0,.39-0.27A3.08,3.08,0,0,0,29,30.14q0-.24.05-3.26V21.57q0-1.56,0-3.05a3.79,3.79,0,0,0-.16-1.29,0.74,0.74,0,0,0-.4-0.3A7.37,7.37,0,0,0,26.93,16.81Z" transform="translate(-1 -0.53)"/><path class="cls-1" d="M40.92,19.88H40.29q0-2.74-.1-3.8l3.48,0.11,2.56,0,3.2-.07q1.82,0,2.65-.09-0.12,1.29-.16,3.8H51.28l-0.08-1.1q-0.08-1-.11-1.14A0.41,0.41,0,0,0,51,17.44a0.39,0.39,0,0,0-.17-0.09q-0.14,0-1-.09t-1.38-.06H47.19q-0.1,1.1-.1,3v6.71q0,1.56,0,3a4.1,4.1,0,0,0,.15,1.3,0.69,0.69,0,0,0,.38.3,6.42,6.42,0,0,0,1.47.12v0.73q-1.82-.09-2.74-0.09l-3.17.09V31.64a6.44,6.44,0,0,0,1.47-.12A0.61,0.61,0,0,0,45,31.25a3,3,0,0,0,.16-1.11q0-.24.05-3.26V20.2q0-.48,0-1.06L45.16,17.2H43.64a14.87,14.87,0,0,0-2.08.11,0.42,0.42,0,0,0-.32.15,4.54,4.54,0,0,0-.2,1.25Z" transform="translate(-1 -0.53)"/><path class="cls-1" d="M53,32.38V31.64a3.51,3.51,0,0,0,1.36-.18,0.4,0.4,0,0,0,.2-0.22,4.65,4.65,0,0,0,.14-1.2q0-1.51,0-2.61V18.09a1.92,1.92,0,0,0,0-.49,1.62,1.62,0,0,0-.35-0.49A0.8,0.8,0,0,0,54,16.88a6.43,6.43,0,0,0-1-.06V16.08l2.12,0q0.74,0,1.47,0L57.74,18l2,2.92L62.65,25q1.4,2,2.25,3.14,0.54,0.76.91,1.19V21q0-1.12-.07-2.63a5.09,5.09,0,0,0-.13-1.18A0.44,0.44,0,0,0,65.41,17a3.66,3.66,0,0,0-1.34-.17V16.08q1.15,0,2.34,0t2,0v0.73a3.69,3.69,0,0,0-1.35.17,0.4,0.4,0,0,0-.2.23,4.56,4.56,0,0,0-.14,1.2q0,1.51,0,2.6v5.51q0,1.67,0,6.25l-1-.34-0.23-.06a0.33,0.33,0,0,1-.11-0.07A4.43,4.43,0,0,1,65,31.84q-0.81-1.09-1.19-1.65l-1.26-1.89-6.93-9.83v8.9q0,1.14.07,2.68a5,5,0,0,0,.13,1.18,0.44,0.44,0,0,0,.21.23,3.64,3.64,0,0,0,1.34.17v0.73q-0.86-.08-1.9-0.08T53,32.38Z" transform="translate(-1 -0.53)"/><path class="cls-1" d="M70.33,32.38V31.64a3.38,3.38,0,0,0,1.33-.18,0.39,0.39,0,0,0,.19-0.22A4.75,4.75,0,0,0,72,30Q72,28.53,72,27.42V21.57q0-1.56,0-3a4.24,4.24,0,0,0-.14-1.29,0.67,0.67,0,0,0-.36-0.3,5.8,5.8,0,0,0-1.39-.12V16.08l2.75,0.07,2.91-.06,3,0a12.26,12.26,0,0,1,1.8.13,10.51,10.51,0,0,0-.21,1.14q0,0.1-.17,2.39H79.63a14.68,14.68,0,0,0-.13-2.14,3.83,3.83,0,0,0-1.17-.36,14.66,14.66,0,0,0-2.16-.16l-1,0L74,17.18q0,1.27-.06,2.38l0,3.87Q75,23.5,76,23.5a12.89,12.89,0,0,0,2-.13,0.54,0.54,0,0,0,.4-0.18,3.2,3.2,0,0,0,.15-0.94l0.06-.8h0.58v0.22l0,2.39,0,2.68H78.44l0-.78a3.08,3.08,0,0,0-.13-1.06,0.62,0.62,0,0,0-.42-0.29,10.55,10.55,0,0,0-2.13-.14q-0.65,0-1.83.06,0,1.15,0,3.41t0,3.23q1.39,0.13,3.11.13a11.32,11.32,0,0,0,1.74-.09,3.54,3.54,0,0,0,1-.31,8.22,8.22,0,0,0,.23-1q0.21-1,.28-1.54h0.65a36.94,36.94,0,0,0-.25,3.84,11.44,11.44,0,0,1-2,.15l-5.75-.08Z" transform="translate(-1 -0.53)"/><path class="cls-1" d="M82.33,16.81V16.08l1.22,0,2,0,1.82,0,1.86-.06a7.72,7.72,0,0,1,2.86.39,2.88,2.88,0,0,1,1.39,1.27A3.83,3.83,0,0,1,94,19.62a4.35,4.35,0,0,1-.46,1.92,4.17,4.17,0,0,1-1.34,1.58,6.57,6.57,0,0,1-2.29,1q0.26,0.4,1.21,1.79l2.59,3.8q1.11,1.6,1.29,1.78a0.62,0.62,0,0,0,.18.12,2.45,2.45,0,0,0,.68.06v0.73a13.38,13.38,0,0,0-1.36-.08q-0.6,0-1.48.08-0.67-.86-2.25-3.36-0.88-1.39-1.55-2.32-1.08-1.54-2.06-2.79l0.1-.34,0.81,0a3.8,3.8,0,0,0,2.84-1,3.57,3.57,0,0,0,1-2.61A3,3,0,0,0,91,17.77a3.42,3.42,0,0,0-2.52-.83,6.25,6.25,0,0,0-2.08.36q0,0.62-.06,1.16,0,0.16-.07,3.34v5.09q0,1.56.05,3a4,4,0,0,0,.14,1.3,0.69,0.69,0,0,0,.38.3,6.51,6.51,0,0,0,1.47.12v0.73q-1.46-.08-2.68-0.08-1,0-3.32.08V31.64a6.51,6.51,0,0,0,1.47-.12,0.67,0.67,0,0,0,.37-0.27,3.24,3.24,0,0,0,.15-1.11q0-.24.05-3.26V21.57q0-1.56,0-3.05a4,4,0,0,0-.15-1.29,0.71,0.71,0,0,0-.38-0.3A6.59,6.59,0,0,0,82.33,16.81Z" transform="translate(-1 -0.53)"/><path class="cls-1" d="M95.72,31.81a29.64,29.64,0,0,0,.2-3.57h0.69a9.54,9.54,0,0,0,.17,2,1.66,1.66,0,0,0,.57.65,4.48,4.48,0,0,0,1.21.61,4.39,4.39,0,0,0,1.47.27,3.59,3.59,0,0,0,1.91-.53,3.21,3.21,0,0,0,1.27-1.4,4.38,4.38,0,0,0,.4-1.86,3.85,3.85,0,0,0-.2-1.31,2,2,0,0,0-.61-0.89,2.41,2.41,0,0,0-1-.48l-1.52-.23q-1.14-.16-1.94-0.36a4.19,4.19,0,0,1-1.57-.86,3.62,3.62,0,0,1-.82-1.3,4.72,4.72,0,0,1-.31-1.73,5.4,5.4,0,0,1,.63-2.55,4.42,4.42,0,0,1,1.87-1.86,5.58,5.58,0,0,1,2.68-.66,7.84,7.84,0,0,1,1.9.26,7.93,7.93,0,0,1,1.92.75q-0.14.72-.21,1.35t-0.09,1.84h-0.69a14.33,14.33,0,0,0-.09-1.93,2.77,2.77,0,0,0-.7-0.75,4.1,4.1,0,0,0-2.21-.67,3,3,0,0,0-2.38,1,3.84,3.84,0,0,0-.89,2.63,3,3,0,0,0,.32,1.51,2.19,2.19,0,0,0,1.14.85,9.59,9.59,0,0,0,1.85.41q1.28,0.19,2.31.41a3.8,3.8,0,0,1,1.43.76,3.36,3.36,0,0,1,.76,1.16,4.37,4.37,0,0,1,.3,1.68,5.47,5.47,0,0,1-1.69,4,5.91,5.91,0,0,1-4.38,1.7A7.59,7.59,0,0,1,95.72,31.81Z" transform="translate(-1 -0.53)"/><text class="cls-2" transform="translate(1.9 41.9) scale(0.99 1)">H<tspan x="11.88" y="0">E</tspan><tspan x="22.09" y="0">A</tspan><tspan x="33.45" y="0">L</tspan><tspan x="43.18" y="0">T</tspan><tspan x="53.49" y="0">H</tspan><tspan x="65.14" y="0">C</tspan><tspan x="76.1" y="0">A</tspan><tspan x="87.6" y="0">R</tspan><tspan x="98.32" y="0">E</tspan></text><path class="cls-1" d="M107.51,30.35a2.52,2.52,0,0,1,.22-1,2.57,2.57,0,0,1,.53-0.8A2.68,2.68,0,0,1,109,28a2.59,2.59,0,0,1,1.17-.28,2.54,2.54,0,0,1,.82.14,2.63,2.63,0,0,1,.71.36,2.73,2.73,0,0,1,.56.55,2.49,2.49,0,0,1,.38.73,2.6,2.6,0,0,1,.14.83,2.47,2.47,0,0,1-.22,1,2.69,2.69,0,0,1-.55.8,2.72,2.72,0,0,1-.72.51,2.59,2.59,0,0,1-1.13.26,2.64,2.64,0,0,1-1.31-.35,2.41,2.41,0,0,1-1-1A2.67,2.67,0,0,1,107.51,30.35Zm0.32,0a2.43,2.43,0,0,0,.29,1.15,2.14,2.14,0,0,0,.85.88,2.29,2.29,0,0,0,1.15.31,2.22,2.22,0,0,0,1-.23,2.31,2.31,0,0,0,1.11-1.17,2.27,2.27,0,0,0,.19-0.94,2.37,2.37,0,0,0-.12-0.74A2.25,2.25,0,0,0,112,29a2.5,2.5,0,0,0-.49-0.5,2.25,2.25,0,0,0-1.35-.45,2.3,2.3,0,0,0-1.15.31,2.12,2.12,0,0,0-.85.88A2.45,2.45,0,0,0,107.83,30.35Zm1.05,1.33V31.57l0.26,0a0.12,0.12,0,0,0,.06-0.06,0.66,0.66,0,0,0,0-.22v-2a0.7,0.7,0,0,0,0-.23,0.12,0.12,0,0,0-.08-0.06h-0.24V28.84h1.21a1.87,1.87,0,0,1,.66.09,0.63,0.63,0,0,1,.33.26,0.7,0.7,0,0,1,.1.36A0.68,0.68,0,0,1,111,30a1.06,1.06,0,0,1-.61.28,0.68,0.68,0,0,1,.2.09,0.81,0.81,0,0,1,.19.21A3.34,3.34,0,0,1,111,31a2.73,2.73,0,0,0,.2.39,0.38,0.38,0,0,0,.13.13l0.16,0v0.11h-0.32a0.78,0.78,0,0,1-.29,0,0.34,0.34,0,0,1-.16-0.14,4.63,4.63,0,0,1-.29-0.63,1.44,1.44,0,0,0-.17-0.34,0.4,0.4,0,0,0-.15-0.13,0.69,0.69,0,0,0-.25,0H109.7v0.9a0.66,0.66,0,0,0,0,.23,0.13,0.13,0,0,0,.08.06H110v0.11h-1.12Zm0.81-1.46h0.16a1,1,0,0,0,.65-0.17,0.58,0.58,0,0,0,.19-0.46,0.61,0.61,0,0,0-.17-0.46A0.77,0.77,0,0,0,110,29h-0.12a0.2,0.2,0,0,0-.13,0l0,0.06a0.62,0.62,0,0,0,0,.18v1Z" transform="translate(-1 -0.53)"/></svg>